<?xml version="1.0" standalone="no"?>
<!DOCTYPE svg PUBLIC "-//W3C//DTD SVG 20010904//EN"
 "http://www.w3.org/TR/2001/REC-SVG-20010904/DTD/svg10.dtd">
<svg version="1.0" xmlns="http://www.w3.org/2000/svg"
 width="640.000000pt" height="640.000000pt" viewBox="0 0 640.000000 640.000000"
 preserveAspectRatio="xMidYMid meet">
<metadata>
Created by potrace 1.11, written by Peter Selinger 2001-2013
</metadata>
<g transform="translate(0.000000,640.000000) scale(0.100000,-0.100000)"
fill="#000000" stroke="none">
<path d="M20 6375 c0 -13 6 -28 14 -32 18 -11 32 -87 15 -81 -7 2 -17 18 -23
35 -6 18 -14 35 -19 39 -13 13 -7 -65 8 -104 9 -22 15 -43 13 -48 -4 -11 6
-14 32 -7 13 3 20 14 20 29 0 13 5 24 10 24 6 0 10 -23 10 -51 0 -41 3 -50 15
-45 11 4 15 -2 15 -25 0 -23 4 -30 14 -26 21 8 37 -16 35 -54 -1 -22 13 -60
38 -109 22 -41 42 -83 46 -93 13 -33 -11 -7 -45 49 -73 122 -78 129 -78 112 0
-9 13 -40 30 -68 17 -28 30 -53 30 -55 0 -3 15 -36 34 -75 26 -52 30 -67 17
-61 -9 5 -23 22 -31 38 -8 15 -34 56 -58 91 -41 57 -45 61 -58 45 -7 -10 -14
-13 -14 -6 0 7 -11 23 -25 37 -29 29 -31 36 -9 36 23 0 9 67 -21 100 -12 14
-25 32 -28 40 -3 8 -6 -6 -6 -31 -1 -32 5 -54 19 -72 22 -27 26 -42 10 -32
-18 11 -10 -15 11 -36 12 -12 22 -32 23 -44 0 -13 4 -21 7 -19 4 2 19 -12 33
-30 27 -36 33 -52 16 -41 -18 11 -10 -3 25 -45 19 -23 35 -48 35 -54 0 -7 32
-49 70 -94 39 -44 70 -89 70 -99 0 -10 7 -29 16 -42 16 -23 16 -23 -6 -11 -29
16 -40 2 -14 -18 11 -10 25 -26 31 -37 10 -17 22 -20 75 -20 45 0 66 4 75 15
10 13 12 13 18 -2 4 -10 11 -16 15 -13 5 3 11 1 15 -5 4 -6 11 -8 16 -5 14 9
11 43 -4 52 -20 12 -28 53 -11 53 8 0 14 -9 14 -19 0 -11 4 -22 9 -25 9 -6 24
122 15 136 -11 17 -24 -4 -18 -29 5 -18 3 -24 -5 -19 -6 4 -11 25 -11 47 0 29
4 39 16 39 24 0 8 61 -22 83 -13 10 -24 25 -24 33 0 9 -5 12 -10 9 -6 -3 -10
-17 -10 -31 0 -14 -4 -22 -10 -19 -5 3 -10 20 -10 36 0 18 4 28 10 24 18 -11
10 15 -10 35 -22 22 -19 40 6 40 8 0 14 8 14 18 0 14 2 15 10 2 8 -12 10 -11
10 7 0 17 4 21 18 17 12 -4 10 1 -8 16 -13 12 -25 27 -26 35 -5 32 -16 55 -28
55 -7 0 -21 28 -33 61 -16 49 -18 67 -9 85 6 14 17 22 25 19 9 -4 11 0 6 12
-4 10 -9 30 -10 45 -2 14 -6 32 -10 38 -6 9 -2 9 14 1 11 -7 21 -20 21 -29 0
-10 6 -24 12 -30 10 -10 10 -15 -1 -21 -10 -7 -11 -13 -2 -30 9 -17 9 -20 -3
-15 -8 3 -21 2 -28 -3 -12 -7 -11 -14 4 -43 9 -19 17 -29 18 -22 0 16 20 16
20 -1 0 -7 20 -30 45 -50 24 -21 52 -53 61 -72 9 -19 19 -33 23 -30 9 5 32
-22 48 -55 6 -14 27 -47 47 -75 36 -50 36 -50 37 -20 1 17 3 22 6 13 6 -25 33
-22 33 3 0 31 -36 102 -70 139 -16 17 -30 40 -30 50 0 10 -7 20 -15 24 -20 7
-19 36 1 36 15 0 14 3 -2 28 -9 15 -26 33 -36 40 -10 7 -18 19 -18 25 0 7 -6
23 -13 37 -7 14 -12 42 -11 63 1 28 -5 46 -23 67 -14 17 -20 30 -14 30 20 0 3
50 -28 81 -28 28 -35 30 -86 26 -34 -2 -62 -11 -75 -22 -11 -10 -20 -14 -20
-9 0 16 -53 36 -61 23 -4 -8 -8 -7 -11 2 -3 8 -9 11 -14 6 -4 -4 -2 -31 5 -60
6 -28 15 -65 18 -80 3 -16 12 -31 19 -34 9 -3 12 -13 8 -29 -4 -14 1 -44 9
-67 8 -23 23 -78 32 -122 10 -44 26 -91 37 -104 13 -18 15 -26 7 -32 -9 -5 -8
-19 4 -56 17 -56 32 -120 24 -113 -4 5 -48 132 -96 281 -11 36 -21 74 -21 85
-1 20 -29 77 -30 59 0 -5 -5 -3 -10 5 -5 8 -6 34 -3 57 4 30 2 43 -6 43 -8 0
-10 8 -6 21 9 27 -3 109 -16 109 -5 0 -9 -9 -9 -19 0 -10 -6 -21 -14 -24 -23
-9 -26 30 -5 57 l19 24 -43 -2 c-40 -1 -42 -2 -45 -36 l-4 -35 -13 30 c-13 29
-14 29 -20 8 -8 -25 -21 -30 -28 -10 -4 9 -6 9 -6 -1 -1 -20 -21 -3 -21 18 0
10 -7 21 -16 24 -23 9 -24 8 -24 -19z m469 -72 c-19 -22 -26 -15 -21 19 4 29
6 30 18 13 10 -14 11 -22 3 -32z m-59 -9 c0 -27 -5 -37 -20 -41 -14 -4 -19
-12 -15 -27 2 -11 6 -39 9 -61 5 -34 4 -37 -7 -21 -6 10 -22 30 -34 44 -13 14
-23 35 -23 48 0 12 -4 26 -10 29 -5 3 -10 13 -10 21 0 12 4 12 25 -2 23 -15
25 -15 52 14 15 17 29 31 31 31 1 1 2 -15 2 -35z m124 -54 c-7 -7 -44 39 -44
54 1 6 12 -2 25 -19 13 -16 22 -32 19 -35z m-337 -2 c-3 -7 -5 -2 -5 12 0 14
2 19 5 13 2 -7 2 -19 0 -25z m-43 -14 c4 -14 12 -24 19 -21 17 5 36 -23 37
-55 0 -31 -20 -37 -40 -13 -11 13 -15 13 -21 3 -15 -24 -26 6 -21 60 4 56 16
68 26 26z m366 -69 c0 -3 -4 -5 -10 -5 -12 0 -41 55 -33 64 5 5 43 -46 43 -59z
m80 -54 c0 -3 3 -17 6 -31 6 -24 5 -23 -15 5 -25 36 -26 46 -6 39 8 -4 15 -9
15 -13z m-347 -7 c-3 -8 0 -26 7 -40 8 -13 10 -27 7 -30 -12 -12 -36 60 -25
74 14 16 19 15 11 -4z m125 -91 c14 -32 16 -46 3 -39 -12 8 -32 66 -23 66 4 0
13 -12 20 -27z m-140 -28 c-3 -3 -9 2 -12 12 -6 14 -5 15 5 6 7 -7 10 -15 7
-18z m-8 -56 c0 -6 -4 -7 -10 -4 -5 3 -10 11 -10 16 0 6 5 7 10 4 6 -3 10 -11
10 -16z m497 -112 c-6 -18 -23 -8 -40 23 -10 18 -15 40 -12 49 5 12 12 7 31
-24 13 -22 23 -44 21 -48z m-597 22 c0 -6 -4 -7 -10 -4 -5 3 -10 11 -10 16 0
6 5 7 10 4 6 -3 10 -11 10 -16z m300 -20 c0 -6 -4 -7 -10 -4 -5 3 -10 11 -10
16 0 6 5 7 10 4 6 -3 10 -11 10 -16z m-262 -41 c12 -23 21 -43 19 -45 -8 -8
-57 51 -57 68 0 30 13 22 38 -23z m332 -339 c0 -5 -4 -9 -10 -9 -5 0 -10 7
-10 16 0 8 5 12 10 9 6 -3 10 -10 10 -16z"/>
<path d="M588 6375 c2 -14 8 -23 12 -20 10 6 1 45 -10 45 -4 0 -5 -11 -2 -25z"/>
<path d="M675 6380 c3 -10 2 -21 -3 -24 -14 -8 31 -96 46 -91 7 3 18 -7 24
-20 11 -25 28 -34 28 -14 0 16 -22 53 -36 62 -8 4 -14 12 -14 17 0 17 22 11
42 -12 l19 -22 6 22 c8 30 23 17 23 -20 0 -26 -2 -29 -15 -18 -8 7 -15 9 -16
4 -4 -35 -3 -52 6 -69 8 -18 10 -17 15 10 l7 30 8 -40 c4 -22 21 -68 37 -102
33 -73 34 -76 9 -68 -16 5 -18 2 -13 -17 3 -13 11 -29 18 -36 9 -8 10 -20 5
-35 -6 -16 -2 -31 14 -57 13 -19 26 -47 29 -62 5 -24 3 -28 -15 -28 -17 0 -20
-4 -15 -24 7 -29 -9 -43 -29 -26 -11 9 -15 9 -15 1 0 -6 4 -11 10 -11 5 0 12
-11 16 -25 8 -33 34 -55 34 -29 1 18 1 18 15 0 8 -11 15 -28 15 -38 0 -10 5
-18 10 -18 6 0 10 9 10 21 0 11 5 17 10 14 6 -3 10 3 10 15 0 13 -9 24 -25 30
-14 5 -25 15 -25 22 1 23 28 51 45 45 16 -7 16 -6 19 84 1 55 19 94 38 83 6
-4 6 -10 -1 -17 -14 -14 -14 -54 0 -62 5 -4 14 -18 19 -31 16 -42 27 -26 19
29 -4 28 -8 63 -8 77 -1 23 0 23 21 -10 13 -19 28 -46 35 -60 12 -23 12 -21 7
20 l-5 45 20 -42 c11 -24 23 -43 26 -43 3 0 1 9 -5 19 -12 23 -14 109 -2 96 5
-6 14 -35 21 -66 6 -31 18 -65 26 -75 14 -18 14 -18 15 4 0 13 4 21 9 18 5 -4
12 28 16 69 8 81 20 97 31 40 5 -28 9 -33 19 -25 20 17 51 -83 36 -116 -6 -14
-11 -49 -11 -79 0 -44 5 -60 27 -87 42 -50 53 -60 53 -49 0 5 -5 13 -11 17
-19 11 -38 68 -27 81 6 8 6 19 -1 32 -14 25 -14 41 0 41 5 0 8 -4 5 -9 -5 -7
37 -21 65 -21 4 0 10 28 11 63 l4 62 8 -43 c12 -62 31 -67 20 -6 -4 27 -8 64
-8 82 0 17 -3 32 -7 32 -13 0 -24 -24 -20 -45 2 -14 -1 -17 -8 -10 -5 6 -11
35 -13 65 -3 40 -6 49 -11 35 -5 -11 -15 -33 -22 -50 l-14 -30 0 37 c-1 41
-16 59 -24 28 -7 -28 -27 -25 -27 4 0 14 -4 28 -10 31 -17 10 -12 48 5 41 19
-7 45 20 45 47 0 15 3 18 9 9 15 -24 34 13 27 52 -4 19 -3 37 2 40 9 5 22 -84
22 -150 0 -19 5 -34 11 -34 8 0 10 16 5 50 -4 32 -3 50 4 50 5 0 10 -11 10
-24 0 -17 5 -23 18 -22 9 0 16 -4 15 -9 -12 -73 -7 -171 13 -237 10 -34 21
-18 27 38 6 58 16 80 25 55 3 -10 11 -3 23 20 l18 34 1 -29 c0 -21 4 -27 16
-22 9 3 18 6 20 6 2 0 4 13 4 29 0 16 3 38 7 48 6 14 9 8 14 -22 5 -39 6 -39
17 -15 l11 25 1 -25 c1 -23 2 -23 19 10 11 19 17 38 15 41 -2 4 5 9 16 12 14
4 20 0 21 -11 0 -11 2 -12 6 -4 2 6 13 12 24 12 12 0 19 7 19 19 0 10 7 24 15
31 12 10 15 9 15 -5 0 -12 5 -15 16 -11 9 3 19 6 24 6 4 0 11 11 14 25 4 14
13 25 20 25 16 0 8 -36 -26 -107 -21 -43 -19 -90 4 -104 8 -5 8 -20 0 -52 -7
-25 -9 -60 -5 -78 4 -23 3 -30 -5 -25 -7 4 -12 24 -12 44 0 50 -20 28 -26 -29
-9 -76 -9 -318 -1 -326 5 -4 12 -1 17 7 10 17 59 22 77 8 7 -6 14 -4 18 3 6 8
10 8 16 -2 6 -11 11 -10 26 3 10 9 27 18 38 20 14 2 21 14 26 41 3 20 14 46
24 57 10 11 18 34 17 51 -1 28 1 29 12 14 12 -17 13 -17 20 0 5 14 9 15 20 5
12 -9 17 -7 26 9 11 21 -3 31 -15 11 -9 -14 -25 -2 -25 19 0 9 16 41 35 71 38
60 48 98 16 62 -22 -26 -31 -28 -31 -7 0 8 4 15 9 15 10 0 91 114 91 129 0 7
-11 4 -27 -6 -15 -10 -30 -16 -33 -13 -2 3 -16 -15 -30 -40 -43 -78 -47 -83
-58 -76 -11 7 17 93 53 163 9 18 14 41 10 52 -3 10 -1 31 5 46 11 29 5 49 -9
27 -4 -8 -17 -15 -27 -16 -12 -2 -20 -12 -22 -30 -3 -22 -6 -25 -18 -15 -11 9
-17 9 -29 -1 -12 -10 -15 -10 -15 4 0 9 5 16 10 16 18 0 10 39 -10 50 -10 6
-25 28 -31 50 -17 56 -45 55 -54 -1 -5 -27 -10 -37 -15 -29 -5 7 -6 19 -3 27
11 28 -85 140 -112 130 -10 -4 -15 -1 -15 11 0 14 -3 14 -21 -4 -15 -15 -18
-28 -14 -47 8 -31 34 -43 49 -22 10 14 14 11 29 -19 9 -20 24 -36 33 -36 21 0
14 -20 -14 -38 -20 -13 -22 -13 -22 7 0 12 -6 21 -16 21 -8 0 -13 4 -10 8 8
13 -26 12 -53 -1 -20 -10 -26 -8 -43 13 -16 20 -21 21 -29 9 -7 -12 -9 -12 -9
1 0 10 -8 6 -24 -12 -14 -16 -22 -35 -19 -46 2 -10 -3 -25 -13 -33 -16 -13
-17 -11 -11 23 6 41 -8 62 -18 26 -9 -32 -38 -88 -46 -88 -11 0 -19 45 -9 48
6 2 10 17 10 33 0 41 -17 28 -30 -23 -7 -22 -15 -37 -20 -32 -8 10 10 118 23
130 4 4 7 21 7 38 0 45 14 63 34 47 9 -8 16 -20 16 -27 0 -8 5 -14 10 -14 6 0
10 8 10 17 0 15 2 14 14 -3 14 -18 15 -18 24 6 6 14 19 35 30 46 31 33 14 38
-25 8 l-35 -26 4 23 c2 17 -3 25 -17 27 -11 2 -23 10 -27 17 -5 7 -16 11 -27
8 -12 -3 -20 2 -24 16 -4 18 -13 21 -55 21 -56 0 -67 -11 -71 -73 -1 -11 -6
-15 -12 -11 -7 4 -9 22 -6 45 l5 39 -141 -1 c-78 0 -149 -5 -159 -10 -9 -5
-22 -27 -28 -49 -6 -22 -15 -40 -20 -40 -10 0 -26 66 -22 88 2 8 -12 12 -46
12 -43 0 -50 -3 -60 -25 -7 -14 -12 -36 -12 -47 0 -21 0 -21 16 -2 15 18 15
18 9 -11 -8 -35 -11 -39 -23 -31 -15 9 -22 64 -12 91 9 23 7 25 -22 25 -17 0
-40 -7 -50 -17 -15 -14 -18 -14 -18 -1 0 12 -14 15 -66 16 -59 1 -65 0 -59
-18z m822 -52 c-3 -8 -6 -5 -6 6 -1 11 2 17 5 13 3 -3 4 -12 1 -19z m-522 -8
c3 -5 1 -10 -4 -10 -6 0 -11 5 -11 10 0 6 2 10 4 10 3 0 8 -4 11 -10z m-119
-35 c1 -14 -1 -25 -6 -25 -12 0 -23 37 -15 51 9 14 18 4 21 -26z m142 -37
l-13 -23 -3 27 c-2 15 3 37 10 50 l13 23 3 -27 c2 -15 -3 -37 -10 -50z m334
-10 c-7 -7 -12 -8 -12 -2 0 14 12 26 19 19 2 -3 -1 -11 -7 -17z m65 -30 c-3
-7 -5 -2 -5 12 0 14 2 19 5 13 2 -7 2 -19 0 -25z m-307 -11 c0 -30 -15 -53
-24 -38 -4 6 -12 9 -17 6 -15 -10 -10 15 9 40 20 26 32 23 32 -8z m413 -40
c-6 -36 -28 -65 -40 -53 -4 4 0 21 10 37 9 17 17 37 17 45 0 9 4 12 10 9 5 -3
7 -20 3 -38z m-193 23 c0 -5 -2 -10 -4 -10 -3 0 -8 5 -11 10 -3 6 -1 10 4 10
6 0 11 -4 11 -10z m-245 -59 c3 -5 1 -12 -5 -16 -5 -3 -10 1 -10 9 0 18 6 21
15 7z m-115 -22 c0 -6 -4 -7 -10 -4 -5 3 -10 11 -10 16 0 6 5 7 10 4 6 -3 10
-11 10 -16z m90 -67 c0 -7 -4 -10 -10 -7 -5 3 -10 16 -10 28 0 18 2 19 10 7 5
-8 10 -21 10 -28z m80 14 c0 -8 -4 -18 -10 -21 -5 -3 -10 -25 -11 -48 l-1 -42
-9 35 c-5 22 -4 45 3 63 11 29 28 37 28 13z m135 4 c3 -5 1 -10 -4 -10 -6 0
-11 5 -11 10 0 6 2 10 4 10 3 0 8 -4 11 -10z m691 -38 c-15 -15 -16 -15 -16 0
0 9 3 24 6 33 7 16 8 16 17 0 6 -12 5 -22 -7 -33z m-1000 -49 c8 -29 14 -59
11 -66 -2 -6 0 -22 4 -34 5 -14 5 -23 -1 -23 -6 0 -10 3 -11 8 -4 42 -29 127
-38 130 -6 2 -11 17 -11 34 0 26 2 29 15 18 8 -7 22 -37 31 -67z m1198 25 c-9
-14 -23 2 -17 18 4 12 8 13 14 3 4 -7 5 -17 3 -21z m-145 0 c0 -7 -4 -22 -9
-33 -7 -18 -8 -19 -15 -2 -4 9 -5 24 -1 32 7 18 26 20 25 3z m-1089 -74 c0
-14 -4 -23 -10 -19 -5 3 -10 15 -10 26 0 10 5 19 10 19 6 0 10 -12 10 -26z
m1010 -21 c0 -27 -3 -34 -11 -26 -7 7 -9 23 -5 37 9 37 16 32 16 -11z m-870
-25 c0 -5 -4 -8 -10 -8 -5 0 -10 10 -10 23 0 18 2 19 10 7 5 -8 10 -18 10 -22z
m847 -100 c-3 -7 -5 -2 -5 12 0 14 2 19 5 13 2 -7 2 -19 0 -25z m243 -33 c0
-8 -4 -15 -10 -15 -5 0 -10 -10 -10 -22 0 -17 -3 -19 -12 -10 -9 9 -8 17 2 37
15 28 30 33 30 10z m-286 -183 c-8 -39 -20 -41 -27 -4 -6 32 0 43 13 22 8 -12
10 -12 10 4 0 11 2 17 5 14 3 -3 2 -19 -1 -36z"/>
<path d="M4625 6243 c-10 -224 -6 -205 -49 -217 -21 -6 -37 -14 -37 -18 1 -5
1 -12 1 -17 0 -5 17 -11 39 -15 36 -5 39 -9 45 -45 3 -22 3 -47 0 -55 -3 -9
-1 -16 5 -16 6 0 11 12 11 28 0 69 5 73 90 70 43 -2 82 1 86 5 5 4 2 17 -5 29
l-13 21 123 -7 c282 -15 394 -17 379 -8 -16 10 -96 21 -205 28 -38 3 -72 9
-73 14 -2 6 -8 7 -14 4 -5 -3 -29 -3 -54 1 -31 4 -44 11 -44 22 0 14 12 15
103 8 181 -13 342 -22 346 -19 16 13 -86 26 -344 44 -165 12 -312 24 -327 27
l-28 6 0 133 c0 106 -3 134 -14 134 -10 0 -15 -35 -21 -157z"/>
<path d="M5932 6353 c-6 -27 -18 -84 -27 -128 -23 -111 -35 -142 -61 -154 -22
-9 -22 -8 -17 27 3 20 11 61 18 90 13 53 13 53 -11 63 -33 12 -71 12 -79 -1
-4 -6 -12 -6 -23 0 -17 9 -82 31 -82 27 0 -5 -30 -164 -36 -189 -7 -32 -24
-36 -151 -32 -92 3 -95 2 -45 -8 28 -6 52 -14 52 -18 0 -15 -67 -37 -102 -32
-21 2 -38 0 -38 -5 0 -6 32 -13 72 -17 91 -8 118 -15 118 -30 0 -6 13 -19 29
-29 32 -19 45 -55 36 -97 -8 -37 7 -46 87 -53 81 -7 93 1 102 70 4 26 9 56 12
66 6 21 24 23 24 2 0 -8 9 -15 20 -15 12 0 20 7 20 16 0 11 5 14 16 10 10 -4
22 1 30 11 12 17 14 17 28 -2 20 -26 20 -35 -4 -129 -24 -93 -24 -110 -7 -128
8 -7 16 -20 19 -28 6 -16 12 -5 58 120 15 41 40 103 55 136 l28 61 51 -13 c28
-7 60 -18 71 -23 69 -32 133 -59 153 -65 12 -4 29 -19 37 -34 13 -24 14 5 15
276 l0 302 -229 0 -229 0 -10 -47z m3 -333 c30 -20 21 -25 -22 -14 -13 4 -23
13 -23 20 0 19 9 18 45 -6z"/>
<path d="M641 6374 c0 -11 3 -14 6 -6 3 7 2 16 -1 19 -3 4 -6 -2 -5 -13z"/>
<path d="M3834 6340 c-5 -5 -18 -11 -29 -13 -11 -1 -26 -6 -33 -10 -6 -5 -33
-12 -60 -17 -26 -4 -58 -12 -71 -16 -21 -6 -23 -4 -18 11 6 13 3 16 -10 10
-46 -17 -205 -55 -258 -61 -33 -4 -70 -14 -82 -22 -25 -16 -29 -11 -12 17 13
20 4 75 -10 66 -5 -3 -12 1 -14 7 -3 7 -6 -20 -6 -61 l-1 -74 53 6 c29 3 84
14 122 25 70 20 201 45 304 58 81 10 151 45 151 75 0 12 -13 12 -26 -1z"/>
<path d="M640 6225 c0 -8 4 -15 10 -15 5 0 7 7 4 15 -4 8 -8 15 -10 15 -2 0
-4 -7 -4 -15z"/>
<path d="M720 6237 c0 -5 5 -17 10 -28 11 -20 40 -27 40 -9 0 6 -7 10 -15 10
-7 0 -19 8 -24 18 -6 9 -11 13 -11 9z"/>
<path d="M700 6195 c0 -18 -12 -19 -28 -3 -7 7 -12 9 -12 4 0 -13 28 -36 41
-34 6 2 17 -13 22 -32 11 -34 11 -34 15 -8 2 15 -4 40 -13 57 -17 34 -25 39
-25 16z"/>
<path d="M2058 6134 c11 -31 18 -40 20 -28 2 11 8 23 13 29 14 14 11 25 -6 19
-8 -4 -17 1 -21 10 -3 9 -10 16 -15 16 -4 0 0 -21 9 -46z"/>
<path d="M51 6124 c0 -11 3 -14 6 -6 3 7 2 16 -1 19 -3 4 -6 -2 -5 -13z"/>
<path d="M3849 6115 c-13 -13 -28 -25 -32 -25 -5 0 -43 -16 -85 -35 -42 -20
-89 -37 -104 -39 -16 -1 -38 -12 -51 -22 -39 -35 -61 -50 -53 -36 4 6 3 12 -3
12 -5 0 -11 -5 -13 -11 -5 -16 -94 -48 -117 -42 -10 2 -38 -1 -62 -8 -24 -7
-52 -13 -61 -12 -10 0 -18 -5 -19 -11 -1 -6 -5 0 -9 14 -4 14 -9 -150 -10
-365 -2 -645 -3 -1599 -1 -1942 l1 -323 344 0 c219 0 347 4 351 10 3 6 1 10
-6 10 -8 0 -10 12 -5 40 5 33 4 38 -9 34 -21 -8 -19 16 3 32 15 12 15 15 2 24
-12 8 -13 13 -3 29 11 17 10 20 -10 23 -12 2 -22 8 -23 13 -2 30 -17 86 -25
90 -4 3 -5 13 -2 22 4 11 3 14 -5 9 -8 -5 -10 -2 -6 8 3 9 1 16 -5 16 -6 0
-11 8 -11 18 0 10 -8 34 -19 55 -10 20 -22 53 -25 72 -4 19 -12 35 -18 35 -5
0 -7 7 -4 15 3 8 9 22 12 30 4 10 0 15 -10 15 -18 0 -23 45 -6 55 18 11 11 35
-7 28 -16 -6 -16 -5 -5 10 8 9 11 21 8 26 -4 5 -1 13 5 16 6 5 3 13 -11 22
-20 14 -20 16 -4 27 9 7 18 22 19 32 0 11 4 25 9 32 4 6 2 12 -3 12 -6 0 -11
5 -11 10 0 6 -10 20 -22 32 -21 21 -21 21 -2 36 13 10 15 16 7 19 -18 6 -16
33 1 33 8 0 18 5 22 12 5 7 1 9 -13 6 -16 -4 -20 -1 -20 16 0 16 5 22 21 22
12 -1 20 4 18 12 -1 7 9 17 23 22 14 5 25 14 25 20 0 6 -4 8 -10 5 -15 -9 -12
11 4 27 16 17 15 60 -2 74 -11 8 -11 12 2 23 8 7 12 20 9 28 -4 11 -3 14 6 9
13 -8 41 10 41 26 0 6 -11 7 -27 3 -51 -12 -16 6 45 25 36 10 62 14 64 8 2 -5
15 2 30 15 18 16 23 28 16 35 -6 6 8 18 44 36 29 15 43 24 31 21 -18 -5 -21
-3 -16 17 4 13 11 26 16 29 5 4 10 50 11 103 3 106 2 106 -58 81 -35 -15 -49
-35 -24 -35 6 0 20 -7 29 -16 18 -16 17 -17 -6 -36 -14 -11 -23 -24 -19 -29 3
-5 -2 -12 -10 -15 -9 -3 -16 -15 -16 -26 0 -11 -5 -18 -12 -15 -7 2 -12 10
-11 16 4 14 -33 15 -42 1 -9 -15 -25 -12 -25 5 0 8 5 15 11 15 5 0 7 5 4 11
-4 6 2 13 12 15 29 8 43 36 27 52 -8 7 -14 9 -14 5 0 -4 -14 -8 -30 -9 l-31
-1 21 19 c12 12 19 27 16 35 -4 9 -2 21 3 27 6 7 6 18 2 25 -7 11 -14 11 -41
-3 -18 -9 -40 -16 -49 -15 -10 0 -8 3 7 9 12 5 22 13 22 19 0 5 10 11 23 15
16 4 19 8 9 15 -10 6 -3 13 25 24 21 9 30 16 21 16 -21 1 -23 12 -5 30 10 10
9 11 -5 6 -10 -4 -18 -3 -18 3 0 6 10 13 23 16 12 3 -11 3 -50 2 -71 -3 -105
-16 -100 -39 2 -14 -125 -10 -134 4 -3 5 -29 13 -59 19 -30 6 -68 15 -85 20
-16 6 -49 15 -73 20 -23 6 -40 15 -37 20 3 6 -1 7 -10 3 -9 -3 -41 0 -71 7
l-54 13 0 139 c0 112 3 138 14 138 8 0 17 -6 19 -12 4 -9 6 -8 6 2 1 8 12 24
26 34 14 10 25 27 25 37 0 12 14 25 37 36 21 10 43 28 49 41 6 13 29 32 50 43
22 10 54 32 72 49 18 16 39 30 46 30 16 0 39 26 42 45 3 18 36 63 51 69 8 3
15 -5 19 -19 7 -29 22 -33 30 -7 3 9 10 25 15 34 5 10 9 33 9 52 0 25 5 35 20
39 11 3 29 21 41 41 11 20 25 36 30 36 5 0 9 6 9 14 0 8 25 28 55 45 30 17 55
36 55 41 0 12 -42 30 -70 30 -10 0 -28 -11 -41 -25z m-2 -1101 c-3 -3 -12 -4
-19 -1 -8 3 -5 6 6 6 11 1 17 -2 13 -5z m-52 -29 c-53 -18 -91 -18 -45 -1 19
8 46 14 60 14 19 0 15 -3 -15 -13z m85 -225 c0 -7 7 -7 23 0 21 11 21 10 3 -4
-25 -20 -46 -20 -46 -1 0 8 5 15 10 15 6 0 10 -5 10 -10z m-110 -390 c0 -5 -7
-10 -16 -10 -8 0 -12 5 -9 10 3 6 10 10 16 10 5 0 9 -4 9 -10z"/>
<path d="M75 6070 c9 -16 20 -30 25 -30 6 0 10 -7 10 -15 0 -8 7 -15 15 -15 9
0 12 6 9 15 -4 8 -10 15 -14 15 -4 0 -13 14 -20 30 -7 17 -19 30 -26 30 -12 0
-12 -5 1 -30z"/>
<path d="M3021 6029 c-14 -24 -60 -174 -61 -200 0 -9 -6 -29 -14 -45 -10 -19
-14 -51 -12 -92 3 -53 8 -66 30 -87 15 -14 31 -25 37 -25 5 0 9 -7 9 -15 0 -8
6 -15 14 -15 11 0 13 -8 9 -33 -4 -30 -1 -35 30 -52 35 -19 36 -19 22 -52 -14
-34 -13 -36 20 -34 11 0 14 -2 8 -5 -18 -8 -16 -24 3 -24 9 0 18 -9 21 -20 3
-11 9 -20 14 -20 5 0 9 -9 9 -21 0 -15 -5 -19 -15 -15 -8 3 -15 1 -15 -4 0 -6
-9 -10 -20 -10 -11 0 -20 -5 -20 -10 0 -6 17 -10 38 -9 l39 3 6 239 c12 414 8
555 -13 542 -4 -3 -27 2 -50 10 -57 20 -73 19 -89 -6z"/>
<path d="M2240 6000 c0 -19 3 -21 12 -12 9 9 9 15 0 24 -9 9 -12 7 -12 -12z"/>
<path d="M1 5944 c0 -11 3 -14 6 -6 3 7 2 16 -1 19 -3 4 -6 -2 -5 -13z"/>
<path d="M2196 5943 c-6 -14 -5 -15 5 -6 7 7 10 15 7 18 -3 3 -9 -2 -12 -12z"/>
<path d="M2280 5935 c-7 -8 -8 -15 -2 -15 5 0 15 7 22 15 7 8 8 15 2 15 -5 0
-15 -7 -22 -15z"/>
<path d="M830 5902 c6 -13 14 -21 18 -18 3 4 -2 14 -12 24 -18 16 -18 16 -6
-6z"/>
<path d="M2303 5867 c-39 -61 -43 -83 -13 -67 12 6 20 21 20 36 0 13 7 36 16
50 9 13 15 26 13 28 -2 2 -19 -19 -36 -47z"/>
<path d="M1562 5855 c0 -16 2 -22 5 -12 2 9 2 23 0 30 -3 6 -5 -1 -5 -18z"/>
<path d="M4531 5831 c-8 -5 -10 -14 -7 -20 9 -13 -6 -15 -19 -2 -6 6 -24 3
-46 -8 -25 -12 -40 -15 -51 -7 -12 7 -20 5 -33 -7 -15 -16 -15 -19 0 -49 9
-20 12 -34 6 -36 -6 -2 2 -15 17 -30 15 -15 33 -39 39 -54 9 -19 20 -28 37
-28 29 0 41 14 51 58 6 31 1 38 -27 33 -5 0 -8 6 -8 15 0 12 6 15 21 11 14 -4
22 1 28 16 l8 21 12 -22 c8 -14 21 -22 39 -22 l27 0 -28 23 c-23 18 -27 28
-22 48 l6 26 28 -26 c15 -14 25 -29 23 -33 -2 -5 2 -8 8 -8 7 0 10 -6 7 -13
-3 -7 2 -24 9 -38 8 -13 14 -17 13 -9 -1 8 0 31 1 50 2 25 4 29 7 13 8 -40 56
-18 68 30 8 31 25 36 25 8 0 -10 7 -22 16 -25 9 -3 14 -12 11 -20 -7 -18 28
-52 38 -37 3 6 4 15 0 20 -3 5 -1 12 5 16 5 3 10 2 10 -4 0 -5 12 -4 28 5 15
7 33 14 40 14 7 0 10 5 7 11 -4 6 -10 8 -13 5 -3 -3 -11 -1 -19 5 -7 6 -13 8
-13 3 0 -5 -5 -2 -10 6 -8 13 -11 13 -19 1 -5 -8 -14 -10 -21 -6 -7 4 -16 2
-21 -6 -6 -11 -9 -9 -9 8 0 12 -3 29 -7 39 -5 13 -3 15 7 9 9 -5 11 -4 6 3 -5
9 -13 9 -27 2 -11 -7 -19 -7 -19 -1 0 5 -24 9 -52 9 -29 0 -72 2 -95 6 -28 3
-43 2 -43 -6 0 -7 -4 -7 -13 0 -7 6 -18 7 -26 3z m-44 -83 c-3 -8 -6 -5 -6 6
-1 11 2 17 5 13 3 -3 4 -12 1 -19z m-32 -38 c3 -5 1 -10 -4 -10 -6 0 -11 5
-11 10 0 6 2 10 4 10 3 0 8 -4 11 -10z"/>
<path d="M0 5819 c0 -8 13 -25 30 -37 38 -28 38 -24 0 19 -19 22 -30 29 -30
18z"/>
<path d="M550 5818 c0 -9 -3 -25 -7 -35 -3 -10 -3 -15 2 -11 4 4 15 2 23 -5
13 -10 14 -8 7 13 -4 14 -11 32 -16 40 -7 13 -8 13 -9 -2z"/>
<path d="M4815 5801 c-3 -5 -1 -12 5 -16 5 -3 10 1 10 9 0 18 -6 21 -15 7z"/>
<path d="M841 5784 c0 -11 3 -14 6 -6 3 7 2 16 -1 19 -3 4 -6 -2 -5 -13z"/>
<path d="M1265 5772 c-4 -19 -1 -40 7 -54 12 -22 13 -21 16 21 4 53 -13 77
-23 33z"/>
<path d="M95 5766 c10 -14 22 -26 27 -26 13 0 -15 43 -31 48 -9 3 -7 -5 4 -22z"/>
<path d="M655 5780 c3 -5 8 -10 11 -10 2 0 4 5 4 10 0 6 -5 10 -11 10 -5 0 -7
-4 -4 -10z"/>
<path d="M4336 5750 c9 -16 19 -32 24 -35 5 -3 2 8 -6 25 -9 16 -19 32 -24 35
-5 3 -2 -8 6 -25z"/>
<path d="M2415 5736 c-16 -13 -27 -28 -22 -32 8 -9 59 26 65 44 6 19 -10 14
-43 -12z"/>
<path d="M536 5741 c-4 -7 -5 -15 -2 -18 9 -9 19 4 14 18 -4 11 -6 11 -12 0z"/>
<path d="M657 5730 c7 -25 23 -37 23 -17 0 8 -6 20 -14 26 -12 10 -13 8 -9 -9z"/>
<path d="M4202 5738 c-14 -14 -16 -28 -3 -28 5 0 11 9 14 20 6 23 5 24 -11 8z"/>
<path d="M4246 5734 c-6 -17 0 -34 12 -34 4 0 9 11 10 25 2 28 -12 34 -22 9z"/>
<path d="M37 5710 c28 -31 39 -39 27 -17 -13 22 -37 47 -46 47 -4 0 4 -13 19
-30z"/>
<path d="M1201 5724 c0 -11 3 -14 6 -6 3 7 2 16 -1 19 -3 4 -6 -2 -5 -13z"/>
<path d="M2486 5731 c-7 -11 22 -23 35 -15 5 3 7 10 4 15 -8 12 -32 12 -39 0z"/>
<path d="M4770 5719 c1 -8 7 -27 15 -44 13 -29 13 -29 14 -5 0 14 -6 34 -14
44 -11 14 -15 16 -15 5z"/>
<path d="M6387 5723 c-12 -19 -11 -87 1 -91 8 -2 12 11 12 47 0 49 -3 60 -13
44z"/>
<path d="M817 5683 c3 -21 12 -42 20 -46 7 -4 13 -15 13 -23 0 -18 29 -64 41
-64 16 0 10 24 -26 98 -38 79 -57 93 -48 35z"/>
<path d="M1551 5708 c0 -7 4 -22 9 -33 7 -17 9 -15 9 13 1 17 -3 32 -9 32 -5
0 -10 -6 -9 -12z"/>
<path d="M4959 5673 c-2 -96 4 -108 48 -99 22 5 35 18 51 52 13 25 18 43 12
39 -5 -3 -10 3 -10 15 0 22 -5 25 -62 35 l-38 6 -1 -48z m18 -65 c-3 -8 -6 -5
-6 6 -1 11 2 17 5 13 3 -3 4 -12 1 -19z"/>
<path d="M4300 5702 c0 -12 19 -26 26 -19 2 2 -2 10 -11 17 -9 8 -15 8 -15 2z"/>
<path d="M4225 5683 c16 -16 16 -17 -2 -24 -10 -4 -25 -14 -32 -23 -12 -14
-10 -16 12 -16 14 0 32 -7 41 -15 8 -8 24 -15 34 -15 11 0 22 -5 24 -12 2 -6
9 -8 15 -5 20 12 2 45 -47 86 -49 41 -76 56 -45 24z m25 -53 c8 -5 11 -10 5
-10 -5 0 -17 5 -25 10 -8 5 -10 10 -5 10 6 0 17 -5 25 -10z"/>
<path d="M2200 5679 c0 -5 5 -7 10 -4 6 3 10 8 10 11 0 2 -4 4 -10 4 -5 0 -10
-5 -10 -11z"/>
<path d="M2573 5676 c-33 -16 -28 -27 7 -15 17 6 30 15 30 20 0 11 -8 10 -37
-5z"/>
<path d="M4622 5660 c1 -16 5 -27 10 -24 11 7 10 54 -1 54 -5 0 -9 -13 -9 -30z"/>
<path d="M0 5670 c0 -5 12 -10 28 -10 21 0 24 2 12 10 -20 13 -40 13 -40 0z"/>
<path d="M660 5661 c0 -12 6 -21 15 -21 8 0 15 4 15 9 0 5 -7 14 -15 21 -13
10 -15 9 -15 -9z"/>
<path d="M2452 5667 c-8 -9 -19 -14 -27 -11 -7 3 -30 -4 -50 -15 l-38 -20 29
-7 c18 -5 29 -3 32 4 2 7 20 12 40 11 l37 -1 -47 -21 c-52 -22 -58 -33 -31
-52 16 -12 16 -15 1 -37 -13 -20 -14 -27 -3 -42 17 -23 61 -18 57 6 -2 13 5
17 38 16 22 0 47 5 55 12 8 7 36 12 63 12 57 0 109 32 80 49 -10 5 -15 16 -12
24 10 26 -37 39 -79 21 -35 -14 -37 -14 -37 4 0 17 -4 18 -26 10 -26 -10 -71
-13 -46 -3 17 7 15 23 -2 23 -8 0 -16 7 -18 17 -3 15 -4 15 -16 0z m168 -77
c-8 -5 -22 -10 -30 -10 -13 0 -13 1 0 10 8 5 22 10 30 10 13 0 13 -1 0 -10z"/>
<path d="M135 5660 c3 -5 8 -10 11 -10 2 0 4 5 4 10 0 6 -5 10 -11 10 -5 0 -7
-4 -4 -10z"/>
<path d="M2510 5650 c0 -5 4 -10 9 -10 6 0 13 5 16 10 3 6 -1 10 -9 10 -9 0
-16 -4 -16 -10z"/>
<path d="M4110 5650 c0 -5 0 -13 0 -17 1 -5 13 -7 28 -5 21 2 23 1 12 -7 -12
-8 -10 -12 10 -20 l25 -10 -25 0 c-15 -1 -32 5 -40 12 -8 6 -6 2 4 -10 13 -16
30 -23 56 -23 20 0 41 -5 47 -11 6 -6 17 -9 25 -6 8 2 -2 12 -24 22 -20 10
-35 22 -32 27 3 4 -1 8 -9 8 -8 0 -17 7 -21 15 -3 8 -12 15 -21 15 -8 0 -15 5
-15 10 0 6 -4 10 -10 10 -5 0 -10 -4 -10 -10z"/>
<path d="M1270 5646 c0 -4 7 -14 15 -22 8 -9 15 -11 15 -6 0 5 -7 15 -15 22
-8 7 -15 9 -15 6z"/>
<path d="M977 5619 c4 -13 8 -18 11 -10 2 7 -1 18 -6 23 -8 8 -9 4 -5 -13z"/>
<path d="M185 5611 c-7 -13 14 -59 31 -65 18 -7 17 4 -1 27 -7 11 -11 25 -8
33 6 15 -12 20 -22 5z"/>
<path d="M740 5602 c0 -10 11 -29 25 -42 19 -18 25 -20 25 -8 0 8 -11 27 -25
42 -22 23 -25 24 -25 8z"/>
<path d="M4080 5606 c0 -8 4 -17 9 -20 5 -4 7 3 4 14 -6 23 -13 26 -13 6z"/>
<path d="M5160 5608 c0 -14 30 -22 41 -11 7 7 2 12 -15 15 -14 3 -26 1 -26 -4z"/>
<path d="M4610 5577 c0 -20 4 -37 10 -37 5 0 7 14 3 33 -8 45 -13 47 -13 4z"/>
<path d="M4510 5589 c0 -5 5 -7 10 -4 6 3 10 8 10 11 0 2 -4 4 -10 4 -5 0 -10
-5 -10 -11z"/>
<path d="M820 5573 c0 -10 5 -25 10 -33 8 -12 10 -9 10 12 0 15 -4 30 -10 33
-5 3 -10 -2 -10 -12z"/>
<path d="M4030 5573 c-43 -13 -44 -13 -19 -40 24 -25 24 -26 2 -14 -20 10 -23
9 -23 -9 0 -16 -7 -20 -32 -21 -26 0 -29 -2 -14 -8 13 -5 16 -10 8 -15 -6 -4
-20 2 -31 13 -29 29 -56 41 -90 41 -35 0 -43 -19 -8 -21 12 -1 26 -1 31 0 14
3 57 -29 51 -39 -3 -4 1 -10 7 -13 7 -2 10 -7 7 -11 -10 -10 -39 5 -39 20 0
16 -18 18 -40 4 -13 -9 -13 -10 0 -10 16 0 45 -38 36 -47 -3 -3 2 -12 11 -21
14 -14 13 -16 -6 -24 -42 -15 -17 -38 40 -38 17 0 28 4 24 10 -9 15 23 80 50
102 14 11 22 25 18 31 -4 6 0 8 10 4 20 -7 23 8 5 17 -7 4 -2 3 12 0 14 -3 54
-8 90 -10 36 -2 82 -11 104 -20 34 -13 164 -42 222 -48 31 -4 46 -16 40 -32
-4 -10 4 -14 29 -14 76 0 118 51 54 65 -20 5 -29 12 -25 20 3 8 -1 18 -7 23
-13 10 -97 39 -138 48 -34 7 -157 6 -169 -1 -14 -9 -174 -10 -188 -1 -9 5 -8
13 3 30 17 25 6 38 -25 29z m402 -130 c8 -10 -2 -12 -53 -7 -91 9 -109 24 -26
22 41 -1 72 -7 79 -15z m-485 -29 c-3 -3 -12 -4 -19 -1 -8 3 -5 6 6 6 11 1 17
-2 13 -5z"/>
<path d="M255 5560 c3 -5 8 -10 11 -10 2 0 4 5 4 10 0 6 -5 10 -11 10 -5 0 -7
-4 -4 -10z"/>
<path d="M5 5530 c3 -5 11 -10 16 -10 6 0 7 5 4 10 -3 6 -11 10 -16 10 -6 0
-7 -4 -4 -10z"/>
<path d="M2690 5516 c-6 -8 -24 -16 -38 -19 -23 -3 -24 -5 -9 -11 22 -10 55
-1 87 24 l25 20 -26 0 c-15 0 -32 -6 -39 -14z"/>
<path d="M3752 5498 c-16 -16 -15 -28 3 -28 8 0 15 9 15 20 0 23 -2 24 -18 8z"/>
<path d="M5148 5499 c-15 -8 -99 -24 -111 -21 -5 2 -11 -7 -14 -19 -4 -15 -8
-17 -14 -7 -6 10 -11 10 -20 1 -11 -11 -41 -85 -36 -89 1 -1 16 -9 34 -18 40
-20 63 -21 63 -1 0 8 12 18 28 21 147 34 249 75 237 94 -18 29 -135 57 -167
39z m41 -58 c11 -7 10 -11 -7 -20 -11 -6 -27 -8 -35 -5 -8 3 -18 1 -22 -5 -3
-6 -25 -11 -48 -11 l-42 0 25 20 c22 17 43 23 100 28 8 1 21 -2 29 -7z"/>
<path d="M10 5480 c0 -6 7 -10 15 -10 8 0 15 2 15 4 0 2 -7 6 -15 10 -8 3 -15
1 -15 -4z"/>
<path d="M3800 5480 c-11 -7 -7 -10 18 -10 20 0 31 4 27 10 -8 13 -26 13 -45
0z"/>
<path d="M805 5365 c0 -53 4 -88 11 -93 7 -4 14 -27 18 -51 3 -24 9 -47 12
-50 4 -3 4 4 1 17 -5 22 7 30 18 12 4 -6 11 -8 16 -5 17 11 9 56 -16 90 -16
20 -28 52 -32 84 -3 28 -11 58 -17 66 -9 12 -11 -4 -11 -70z"/>
<path d="M2300 5440 c-9 -6 -10 -10 -3 -10 6 0 15 5 18 10 8 12 4 12 -15 0z"/>
<path d="M110 5430 c0 -5 5 -10 11 -10 5 0 7 5 4 10 -3 6 -8 10 -11 10 -2 0
-4 -4 -4 -10z"/>
<path d="M3252 5405 c0 -16 2 -22 5 -12 2 9 2 23 0 30 -3 6 -5 -1 -5 -18z"/>
<path d="M652 5400 c0 -14 2 -19 5 -12 2 6 2 18 0 25 -3 6 -5 1 -5 -13z"/>
<path d="M4095 5410 c-4 -6 -10 -8 -15 -5 -16 10 -20 -13 -4 -26 11 -9 18 -9
22 -2 5 7 38 10 91 8 81 -2 83 -2 50 12 -19 8 -53 13 -76 11 -24 -2 -43 0 -43
4 0 12 -18 10 -25 -2z"/>
<path d="M2520 5400 c0 -5 6 -10 14 -10 8 0 18 5 21 10 3 6 -3 10 -14 10 -12
0 -21 -4 -21 -10z"/>
<path d="M5378 5390 c18 -11 36 -20 40 -20 14 1 -43 40 -58 40 -8 0 0 -9 18
-20z"/>
<path d="M6362 5396 c7 -8 16 -12 21 -9 11 7 -2 23 -19 23 -12 0 -12 -2 -2
-14z"/>
<path d="M4013 5374 c-27 -30 -28 -34 -8 -34 8 0 15 -5 15 -10 0 -7 5 -6 13 1
11 11 18 69 7 69 -3 0 -15 -12 -27 -26z"/>
<path d="M3280 5380 c0 -5 5 -10 11 -10 5 0 7 5 4 10 -3 6 -8 10 -11 10 -2 0
-4 -4 -4 -10z"/>
<path d="M4153 5366 c-16 -19 -5 -27 26 -20 l26 6 -29 -26 c-16 -14 -35 -26
-43 -26 -8 0 -12 -4 -9 -9 8 -13 75 -19 73 -6 -1 5 11 10 27 10 33 0 47 21 19
28 -10 3 8 5 39 6 31 0 60 6 63 11 3 6 16 10 27 10 12 0 19 2 17 5 -8 8 -119
12 -119 5 0 -18 -54 -17 -73 1 -24 22 -28 23 -44 5z"/>
<path d="M0 5339 c0 -15 7 -19 36 -19 40 0 38 13 -6 28 -27 10 -30 9 -30 -9z"/>
<path d="M5274 5349 c-3 -6 0 -10 7 -8 8 1 21 1 29 0 13 -1 13 -2 0 -11 -11
-7 -7 -10 18 -10 24 0 31 -4 26 -12 -6 -10 -4 -10 8 0 13 10 19 10 31 -3 21
-20 26 -19 20 5 -3 11 -13 21 -22 22 -9 0 -22 2 -29 2 -7 1 -16 6 -20 12 -10
14 -59 16 -68 3z"/>
<path d="M4085 5339 c-11 -17 -2 -18 25 -4 24 14 24 14 3 15 -12 0 -25 -5 -28
-11z"/>
<path d="M4078 5303 c7 -3 16 -2 19 1 4 3 -2 6 -13 5 -11 0 -14 -3 -6 -6z"/>
<path d="M3875 5291 c36 -15 105 -23 105 -13 0 13 -36 22 -85 21 -30 0 -35 -2
-20 -8z"/>
<path d="M3995 5281 c-12 -20 119 -57 162 -46 l28 7 -39 13 c-22 8 -52 11 -67
8 -16 -3 -36 1 -52 12 -17 10 -27 13 -32 6z"/>
<path d="M3835 5260 c3 -5 25 -10 48 -11 23 -1 53 -5 67 -10 18 -6 11 -8 -30
-5 -77 5 -120 -3 -120 -22 0 -9 -5 -30 -12 -49 -6 -18 -10 -34 -7 -37 9 -9
134 24 145 39 6 8 16 15 23 15 6 0 11 5 11 10 0 18 42 11 46 -8 4 -14 14 -16
51 -13 30 2 41 6 32 12 -11 6 -10 9 4 15 28 11 10 22 -48 29 -30 4 -53 11 -50
14 4 8 -105 31 -144 31 -12 0 -19 -4 -16 -10z"/>
<path d="M2690 5220 c-14 -4 -62 -8 -107 -9 -60 -1 -84 -5 -90 -15 -15 -27
-325 -65 -351 -44 -7 6 -34 10 -60 9 -26 -2 -57 -3 -69 -3 -13 0 -23 -3 -23
-7 0 -3 -7 -15 -15 -25 -15 -20 -15 -20 -29 0 -14 18 -16 18 -48 -13 -19 -18
-38 -33 -43 -33 -17 -1 -65 -77 -65 -104 0 -32 16 -42 29 -19 10 17 10 17 11
1 0 -10 -14 -27 -30 -40 -20 -14 -28 -28 -25 -39 3 -9 -1 -22 -10 -29 -17 -14
-21 -70 -5 -70 6 0 10 -7 10 -15 0 -8 10 -20 23 -26 12 -6 33 -22 47 -34 29
-26 78 -42 138 -44 47 -2 43 -13 42 102 -1 40 2 47 19 47 11 0 23 5 27 11 4 7
21 9 45 5 22 -3 39 -3 39 2 0 5 22 14 49 21 28 7 51 17 53 23 3 9 28 19 166
68 29 11 62 26 74 35 13 8 28 15 34 15 13 0 60 47 115 113 23 27 39 37 59 37
16 0 32 5 35 10 3 6 20 10 37 10 26 0 29 2 18 15 -17 21 -13 23 53 28 32 3 60
7 63 9 5 5 -133 19 -170 17 -12 -1 -32 -5 -46 -9z m-240 -126 c0 -13 -75 -74
-90 -74 -11 0 -20 -4 -20 -10 0 -5 -16 -10 -35 -10 -22 0 -41 -7 -53 -20 -15
-17 -36 -22 -103 -27 -46 -3 -100 -1 -119 4 l-34 9 46 22 c31 15 55 21 72 16
16 -4 26 -2 26 5 0 6 9 11 19 11 11 0 22 4 25 9 4 5 23 12 44 16 21 3 66 16
101 29 53 19 121 30 121 20z"/>
<path d="M4745 5210 c4 -6 11 -8 16 -5 14 9 11 15 -7 15 -8 0 -12 -5 -9 -10z"/>
<path d="M5399 5181 c7 -5 11 -13 7 -19 -3 -5 1 -15 9 -22 12 -10 16 -9 21 4
8 20 -12 46 -35 46 -13 0 -13 -2 -2 -9z"/>
<path d="M2905 5163 c-59 -7 -63 -19 -11 -41 34 -16 58 -19 98 -15 49 4 54 3
64 -21 9 -19 9 -26 -2 -30 -8 -3 -11 -12 -8 -21 5 -13 8 -14 18 -1 14 18 93
28 100 12 2 -6 5 -1 5 12 1 13 -3 21 -8 18 -5 -3 -15 1 -22 10 -10 13 -10 17
1 24 8 5 18 6 22 4 4 -3 8 0 8 5 0 6 -19 11 -43 11 -23 0 -52 7 -65 15 -24 17
-94 25 -157 18z"/>
<path d="M0 5059 c0 -58 3 -67 20 -72 11 -3 20 -11 20 -17 0 -7 -8 -10 -20 -7
-18 5 -20 0 -20 -39 0 -34 4 -46 18 -50 9 -3 25 -10 35 -15 13 -7 23 -7 32 1
8 7 20 8 26 4 7 -4 38 -9 68 -12 31 -2 61 -8 67 -13 11 -9 46 -11 149 -10 49
1 65 -3 89 -22 28 -23 28 -24 13 -58 -9 -19 -15 -56 -15 -84 l0 -50 37 -2 c61
-4 158 36 197 82 19 22 41 48 49 58 8 9 15 31 15 47 0 17 5 30 11 30 8 0 8 5
-1 15 -7 8 -19 15 -26 15 -8 0 -14 6 -14 14 0 8 -20 24 -44 36 -60 29 -74 46
-57 72 11 17 8 24 -23 54 -19 19 -42 34 -50 34 -8 0 -23 11 -34 25 -16 20 -22
22 -31 11 -9 -11 -20 -12 -49 -4 -20 5 -53 11 -72 13 -19 1 -59 6 -88 10 -36
4 -58 3 -67 -5 -9 -7 -22 -9 -32 -5 -10 5 -60 9 -110 9 l-93 2 0 -67z m135
-89 c78 6 125 3 179 -13 66 -19 71 -21 61 -36 -17 -28 -277 0 -311 33 -17 18
-5 29 21 20 11 -4 34 -6 50 -4z"/>
<path d="M4074 5116 c-37 -13 -33 -36 6 -36 35 0 68 29 48 41 -15 10 -13 10
-54 -5z"/>
<path d="M4025 5040 c-16 -7 -11 -9 20 -9 22 0 47 4 55 9 19 13 -46 13 -75 0z"/>
<path d="M4030 4998 l-25 -11 23 -5 c30 -5 55 5 47 18 -8 12 -13 12 -45 -2z"/>
<path d="M4810 5000 c0 -5 -6 -10 -14 -10 -27 0 -27 -19 -1 -36 22 -14 32 -15
65 -5 48 14 51 27 10 36 -16 4 -32 11 -35 16 -8 12 -25 12 -25 -1z"/>
<path d="M5362 4968 c3 -7 15 -14 29 -16 24 -4 24 -3 4 12 -24 19 -38 20 -33
4z"/>
<path d="M3156 4951 c-4 -7 -5 -15 -2 -18 9 -9 19 4 14 18 -4 11 -6 11 -12 0z"/>
<path d="M3928 4933 c7 -3 16 -2 19 1 4 3 -2 6 -13 5 -11 0 -14 -3 -6 -6z"/>
<path d="M4621 4894 c-12 -15 -21 -31 -21 -35 0 -5 -8 -9 -18 -9 -10 0 -29
-11 -42 -25 -28 -30 -20 -56 20 -65 18 -4 28 -20 45 -70 16 -46 20 -70 13 -83
-8 -15 -5 -20 12 -24 19 -5 21 -11 17 -42 -2 -20 0 -48 6 -64 5 -15 6 -35 1
-45 -13 -29 -12 -55 3 -70 10 -11 11 -18 4 -25 -16 -16 -13 -30 3 -24 8 3 17
1 20 -6 3 -9 8 -8 15 3 6 8 11 11 11 6 0 -6 7 -1 16 10 15 19 15 19 5 -1 -10
-22 -4 -75 9 -75 5 0 10 6 13 13 6 16 9 7 41 -118 14 -55 28 -127 30 -160 3
-33 32 -167 65 -298 34 -132 61 -240 61 -242 0 -1 -21 -5 -46 -8 -68 -7 -124
-69 -124 -137 0 -26 4 -30 26 -30 14 0 23 4 19 10 -3 6 -2 10 3 10 5 0 12 9
15 20 9 36 67 15 67 -24 0 -12 22 -15 133 -18 128 -3 698 5 666 10 -9 1 -38
26 -66 55 -43 46 -132 114 -136 105 -1 -2 -8 -13 -14 -25 -7 -13 -13 -29 -13
-38 0 -15 -30 -36 -52 -34 -7 0 -1 5 15 11 27 10 37 28 15 28 -7 -1 -24 -7
-38 -15 -39 -22 -85 -18 -116 10 -17 15 -24 30 -20 41 9 24 -3 37 -22 22 -10
-7 -6 0 7 15 14 15 20 27 14 27 -6 0 -13 -6 -16 -12 -2 -7 -8 -10 -13 -5 -4 4
2 17 14 29 12 13 22 17 22 10 0 -13 45 -7 66 9 5 4 22 2 37 -6 15 -8 27 -10
27 -6 0 5 -15 14 -32 21 -62 25 -93 76 -132 220 -13 47 -39 139 -59 205 -52
176 -52 190 -2 182 21 -4 35 -2 35 5 0 24 -53 179 -59 171 -3 -5 -14 -12 -23
-16 -13 -4 -16 -1 -14 17 1 12 6 28 11 35 5 9 4 12 -2 8 -6 -4 -20 2 -32 12
-14 12 -18 22 -11 26 5 3 10 14 10 23 -1 15 -2 15 -15 -2 -15 -20 -40 -12 -31
10 3 8 1 14 -4 14 -6 0 -10 -11 -10 -25 0 -22 -3 -24 -19 -15 -26 13 -31 13
-31 -5 0 -8 -5 -15 -11 -15 -6 0 -8 7 -5 16 5 13 2 15 -13 11 -11 -3 -22 0
-24 7 -3 8 -10 6 -23 -4 -17 -13 -17 -13 1 9 l20 24 -35 -8 c-80 -17 -86 -16
-42 7 l42 22 -32 10 c-17 6 -36 19 -42 30 -6 10 -21 30 -33 44 -23 25 -34 77
-12 55 6 -6 17 -9 24 -6 9 3 12 -2 8 -15 -6 -24 7 -34 27 -21 10 6 11 9 3 9
-7 0 -13 10 -13 23 0 27 -37 72 -67 81 -13 4 -23 11 -23 15 0 15 39 43 49 36
6 -3 11 1 11 9 0 15 -34 31 -60 28 -16 -2 -70 76 -70 102 0 9 -4 16 -10 16 -5
0 -10 11 -10 25 0 32 -13 32 -39 -1z m87 -219 c-3 -3 -9 2 -12 12 -6 14 -5 15
5 6 7 -7 10 -15 7 -18z m20 -171 c-7 -15 -14 -21 -16 -15 -5 16 5 41 17 41 7
0 6 -10 -1 -26z m-22 -121 c-11 -11 -17 4 -9 23 7 18 8 18 11 1 2 -10 1 -21
-2 -24z m297 -59 c12 -12 -5 -32 -24 -27 -15 4 -17 8 -8 19 12 15 22 17 32 8z
m87 -205 c0 -6 9 -9 20 -6 24 6 25 1 6 -19 -19 -18 -26 -18 -26 1 0 8 -4 15
-10 15 -5 0 -10 5 -10 10 0 6 5 10 10 10 6 0 10 -5 10 -11z m-40 -29 c0 -5 -4
-10 -10 -10 -5 0 -10 5 -10 10 0 6 5 10 10 10 6 0 10 -4 10 -10z m100 -49 c0
-5 -7 -11 -14 -14 -10 -4 -13 -1 -9 9 6 15 23 19 23 5z m-8 -63 c-7 -7 -12 -8
-12 -2 0 14 12 26 19 19 2 -3 -1 -11 -7 -17z m-25 -30 c-3 -8 -6 -5 -6 6 -1
11 2 17 5 13 3 -3 4 -12 1 -19z m63 -17 c0 -10 -26 -9 -36 2 -4 4 2 7 14 7 12
0 22 -4 22 -9z m-90 -11 c0 -5 -7 -10 -15 -10 -8 0 -15 5 -15 10 0 6 7 10 15
10 8 0 15 -4 15 -10z m30 -60 c0 -5 -7 -10 -15 -10 -8 0 -15 5 -15 10 0 6 7
10 15 10 8 0 15 -4 15 -10z m84 1 c4 -5 -3 -7 -14 -4 -23 6 -26 13 -6 13 8 0
17 -4 20 -9z m0 -46 c-4 -8 -8 -15 -10 -15 -2 0 -4 7 -4 15 0 8 4 15 10 15 5
0 7 -7 4 -15z m-74 -19 c0 -9 -30 -14 -35 -6 -4 6 3 10 14 10 12 0 21 -2 21
-4z m60 -23 c0 -5 -5 -15 -10 -23 -8 -12 -10 -11 -10 8 0 12 5 22 10 22 6 0
10 -3 10 -7z m40 -13 c0 -5 -2 -10 -4 -10 -3 0 -8 5 -11 10 -3 6 -1 10 4 10 6
0 11 -4 11 -10z m-107 -14 c4 -9 0 -13 -11 -12 -9 2 -18 8 -20 14 -5 17 25 15
31 -2z m97 -16 c0 -5 -4 -10 -10 -10 -5 0 -10 5 -10 10 0 6 5 10 10 10 6 0 10
-4 10 -10z m30 -25 c0 -8 -7 -15 -15 -15 -16 0 -20 12 -8 23 11 12 23 8 23 -8z
m-178 -17 c-7 -7 -12 -8 -12 -2 0 6 3 14 7 17 3 4 9 5 12 2 2 -3 -1 -11 -7
-17z m248 -168 c0 -5 -5 -10 -11 -10 -5 0 -7 5 -4 10 3 6 8 10 11 10 2 0 4 -4
4 -10z m-263 -162 c-3 -8 -6 -5 -6 6 -1 11 2 17 5 13 3 -3 4 -12 1 -19z m240
-74 c-3 -3 -12 -4 -19 -1 -8 3 -5 6 6 6 11 1 17 -2 13 -5z"/>
<path d="M2800 4895 c0 -15 -56 -34 -111 -37 -40 -3 -46 -6 -46 -24 0 -20 3
-22 57 -17 62 6 89 -9 48 -27 -16 -7 11 -8 92 -5 80 4 119 10 130 20 24 22 31
18 24 -10 -5 -21 -3 -25 15 -25 12 0 21 4 21 9 0 5 14 12 30 16 35 8 37 16 10
33 -11 7 -17 18 -14 27 10 26 -34 18 -83 -15 -44 -30 -94 -38 -136 -21 -17 6
-17 8 -3 20 19 16 21 31 5 31 -7 0 -18 8 -25 18 -7 9 -14 12 -14 7z"/>
<path d="M2928 4863 c7 -3 16 -2 19 1 4 3 -2 6 -13 5 -11 0 -14 -3 -6 -6z"/>
<path d="M5323 4833 c4 -5 2 -27 -4 -48 -9 -30 -8 -41 5 -53 13 -14 15 -13 21
10 10 38 2 91 -14 96 -8 3 -11 0 -8 -5z"/>
<path d="M2550 4795 c0 -8 5 -15 10 -15 6 0 10 7 10 15 0 8 -4 15 -10 15 -5 0
-10 -7 -10 -15z"/>
<path d="M3155 4801 c-3 -5 -1 -12 5 -16 5 -3 10 1 10 9 0 18 -6 21 -15 7z"/>
<path d="M2605 4790 c-3 -5 -1 -10 4 -10 6 0 11 5 11 10 0 6 -2 10 -4 10 -3 0
-8 -4 -11 -10z"/>
<path d="M2630 4791 c0 -5 8 -11 18 -15 9 -3 23 -9 30 -12 11 -5 11 -3 0 15
-13 21 -48 30 -48 12z"/>
<path d="M5035 4738 c-4 -16 -11 -28 -16 -28 -5 0 -9 -9 -9 -20 0 -11 -9 -29
-20 -40 -24 -24 -49 -28 -30 -5 9 10 9 15 1 15 -6 0 -11 9 -11 20 0 11 -7 20
-15 20 -17 0 -20 -27 -6 -49 20 -31 -18 -69 -61 -62 -5 0 -8 -3 -8 -9 0 -5 6
-10 14 -10 7 0 16 -9 19 -20 4 -16 11 -18 43 -13 22 3 44 11 49 17 6 7 17 15
26 18 9 3 21 28 28 55 11 41 21 68 39 106 2 4 -3 7 -11 7 -9 0 -17 6 -20 13
-2 6 -8 0 -12 -15z"/>
<path d="M2533 4733 c9 -2 25 -2 35 0 9 3 1 5 -18 5 -19 0 -27 -2 -17 -5z"/>
<path d="M2720 4733 c-8 -2 -24 -8 -35 -13 -11 -5 -26 -10 -34 -12 -18 -5 -22
-48 -4 -48 7 0 13 5 13 10 0 6 4 10 10 10 8 0 76 42 89 56 6 5 -19 4 -39 -3z"/>
<path d="M2840 4730 c-11 -7 -9 -11 13 -19 42 -16 52 -13 32 9 -20 23 -24 23
-45 10z"/>
<path d="M2 4680 c1 -30 6 -59 12 -63 8 -6 7 -10 -2 -14 -8 -3 -12 -26 -12
-64 0 -58 1 -59 28 -59 15 0 34 5 42 10 12 7 10 11 -10 19 -21 8 -22 10 -5 10
11 0 26 -3 34 -8 10 -7 19 -4 29 7 13 16 13 16 8 0 -4 -14 0 -18 19 -18 29 0
32 8 8 26 -11 8 -13 13 -6 14 7 0 10 7 6 16 -5 14 -1 15 25 9 31 -6 46 7 20
19 -7 3 0 3 16 -1 28 -6 51 11 40 29 -7 11 -52 10 -59 -2 -3 -5 -12 -10 -20
-10 -20 0 -7 37 16 43 10 3 19 10 19 16 0 12 -48 5 -64 -10 -17 -15 -46 -11
-40 6 4 9 0 15 -8 15 -8 0 -23 9 -33 20 -10 11 -26 20 -36 20 -9 0 -20 6 -23
13 -3 6 -5 -13 -4 -43z"/>
<path d="M2590 4710 c0 -5 5 -10 10 -10 6 0 10 5 10 10 0 6 -4 10 -10 10 -5 0
-10 -4 -10 -10z"/>
<path d="M3161 4704 c0 -11 3 -14 6 -6 3 7 2 16 -1 19 -3 4 -6 -2 -5 -13z"/>
<path d="M2945 4650 c-7 -11 38 -21 48 -11 5 5 -3 11 -18 13 -14 3 -28 2 -30
-2z"/>
<path d="M3162 4640 c0 -14 2 -19 5 -12 2 6 2 18 0 25 -3 6 -5 1 -5 -13z"/>
<path d="M2768 4639 c-10 -5 -43 -11 -73 -13 -30 -1 -58 -5 -60 -8 -11 -11 57
-17 76 -7 11 6 39 10 62 9 59 -3 61 -2 47 15 -14 17 -28 18 -52 4z"/>
<path d="M2268 4613 c7 -3 16 -2 19 1 4 3 -2 6 -13 5 -11 0 -14 -3 -6 -6z"/>
<path d="M2405 4611 c-6 -11 9 -23 19 -14 9 9 7 23 -3 23 -6 0 -12 -4 -16 -9z"/>
<path d="M2580 4599 c0 -5 5 -7 10 -4 6 3 10 8 10 11 0 2 -4 4 -10 4 -5 0 -10
-5 -10 -11z"/>
<path d="M2917 4594 c-4 -4 -7 -14 -7 -23 0 -11 3 -12 11 -4 6 6 10 16 7 23
-2 6 -7 8 -11 4z"/>
<path d="M5101 4583 c7 -12 15 -20 18 -17 3 2 -3 12 -13 22 -17 16 -18 16 -5
-5z"/>
<path d="M2667 4583 c-4 -3 -7 -11 -7 -17 0 -6 5 -5 12 2 6 6 9 14 7 17 -3 3
-9 2 -12 -2z"/>
<path d="M3155 4561 c-3 -5 -1 -12 5 -16 5 -3 10 1 10 9 0 18 -6 21 -15 7z"/>
<path d="M5080 4546 c0 -2 7 -7 16 -10 8 -3 12 -2 9 4 -6 10 -25 14 -25 6z"/>
<path d="M3103 4533 c-7 -2 -13 -11 -13 -19 0 -10 -13 -14 -45 -14 -25 0 -45
-4 -45 -9 0 -5 -36 -12 -80 -16 -44 -4 -80 -9 -80 -11 0 -2 9 -13 20 -24 23
-23 43 -25 59 -6 6 8 23 16 36 19 29 5 34 -17 10 -43 -14 -16 -10 -17 70 -14
47 2 90 6 96 10 6 3 8 17 4 31 -3 14 -1 31 6 39 6 8 8 25 5 39 -6 24 -17 29
-43 18z"/>
<path d="M5071 4497 c-8 -12 -10 -19 -6 -14 5 4 19 0 31 -8 14 -9 25 -11 29
-5 8 13 -1 27 -24 39 -13 7 -20 4 -30 -12z"/>
<path d="M5135 4498 c4 -13 11 -27 16 -33 5 -5 4 5 -2 23 -12 36 -24 44 -14
10z"/>
<path d="M2765 4490 c-4 -6 5 -10 19 -10 14 0 26 5 26 10 0 6 -9 10 -19 10
-11 0 -23 -4 -26 -10z"/>
<path d="M2 4448 c3 -7 13 -15 24 -17 16 -3 17 -1 5 13 -16 19 -34 21 -29 4z"/>
<path d="M5117 4439 c7 -7 15 -10 18 -7 3 3 -2 9 -12 12 -14 6 -15 5 -6 -5z"/>
<path d="M10 4390 c20 -13 53 -13 45 0 -3 6 -18 10 -33 10 -21 0 -24 -2 -12
-10z"/>
<path d="M3105 4300 c3 -5 8 -10 11 -10 2 0 4 5 4 10 0 6 -5 10 -11 10 -5 0
-7 -4 -4 -10z"/>
<path d="M3780 4300 c0 -5 5 -10 11 -10 5 0 7 5 4 10 -3 6 -8 10 -11 10 -2 0
-4 -4 -4 -10z"/>
<path d="M1545 4244 c-16 -7 -45 -13 -62 -14 -30 0 -33 -3 -33 -29 0 -41 14
-46 44 -16 14 14 31 25 39 25 14 0 54 37 46 44 -2 2 -17 -3 -34 -10z"/>
<path d="M1196 4234 c-5 -13 -15 -16 -52 -11 -34 3 -43 2 -34 -7 6 -6 16 -11
23 -11 6 0 22 -16 35 -35 13 -19 26 -36 30 -38 4 -1 13 16 20 38 10 34 10 44
-2 61 -12 18 -14 18 -20 3z"/>
<path d="M4681 4184 c0 -11 3 -14 6 -6 3 7 2 16 -1 19 -3 4 -6 -2 -5 -13z"/>
<path d="M2851 4176 c-14 -16 -8 -21 36 -30 53 -12 51 22 -3 38 -13 4 -26 1
-33 -8z"/>
<path d="M2893 4118 c-13 -6 -23 -15 -23 -19 0 -17 33 -39 61 -39 25 0 29 3
27 28 -3 41 -23 50 -65 30z"/>
<path d="M0 4090 c0 -18 3 -19 20 -10 11 6 20 15 20 20 0 6 -9 10 -20 10 -13
0 -20 -7 -20 -20z"/>
<path d="M5301 4086 c-16 -43 23 -214 76 -332 12 -26 19 -31 53 -32 47 -2 232
-91 328 -158 52 -36 230 -142 318 -188 11 -6 45 -32 75 -58 l55 -47 90 -3 89
-3 3 378 c2 297 0 379 -10 382 -16 6 -114 13 -196 14 -55 1 -66 4 -89 29 -25
27 -25 27 -18 3 l7 -24 -93 7 c-52 4 -119 9 -149 11 -30 2 -55 4 -55 5 0 1
-29 4 -65 5 -36 2 -65 4 -65 6 0 1 -29 3 -65 5 -61 3 -138 9 -238 18 -37 3
-45 0 -51 -18z"/>
<path d="M2897 3999 c-17 -19 -16 -20 8 -29 15 -6 38 -10 53 -10 28 0 115 28
97 31 -24 4 -32 6 -58 17 -40 17 -79 13 -100 -9z"/>
<path d="M2943 3923 c9 -2 25 -2 35 0 9 3 1 5 -18 5 -19 0 -27 -2 -17 -5z"/>
<path d="M2933 3869 c-42 -16 -28 -36 30 -43 35 -4 69 15 49 28 -27 16 -59 23
-79 15z"/>
<path d="M2903 3787 c2 -6 16 -14 31 -18 18 -5 26 -4 23 4 -2 6 -16 14 -31 18
-18 5 -26 4 -23 -4z"/>
<path d="M0 3710 c0 -45 -1 -44 37 -29 22 8 24 12 13 20 -13 8 -13 11 3 20 27
16 20 29 -18 29 -34 0 -35 -1 -35 -40z"/>
<path d="M1355 3730 c-3 -5 -2 -10 4 -10 5 0 13 5 16 10 3 6 2 10 -4 10 -5 0
-13 -4 -16 -10z"/>
<path d="M2890 3731 c0 -5 -3 -16 -6 -24 -10 -26 35 -32 57 -8 19 20 19 20 0
31 -24 12 -51 13 -51 1z"/>
<path d="M1361 3689 c-24 -5 -47 -6 -52 -4 -4 3 -10 1 -14 -5 -3 -5 -22 -10
-40 -10 -50 0 -175 -53 -258 -109 -75 -50 -151 -125 -145 -142 6 -18 23 -12
35 12 33 66 173 153 332 206 83 28 177 40 148 18 -10 -7 -17 -17 -17 -22 0
-15 -67 -73 -85 -73 -19 0 -57 -21 -68 -37 -4 -7 -13 -13 -19 -13 -24 0 -108
-64 -108 -82 0 -24 15 -20 115 27 39 18 90 38 115 45 25 6 52 14 60 17 17 7
28 9 51 11 9 1 28 12 43 25 l27 23 -25 29 c-14 16 -23 32 -20 36 2 4 -5 5 -16
2 -25 -7 -27 18 -4 41 18 18 13 19 -55 5z"/>
<path d="M2843 3624 c-16 -18 -20 -30 -13 -42 4 -9 11 -24 13 -33 7 -22 54
-33 70 -17 17 18 37 65 37 87 0 19 -26 31 -65 31 -11 0 -30 -12 -42 -26z"/>
<path d="M0 3561 l0 -82 60 33 c61 33 75 60 35 66 -43 7 -48 11 -35 27 16 19
12 23 -28 31 l-32 7 0 -82z"/>
<path d="M2835 3490 c3 -5 11 -10 16 -10 6 0 7 5 4 10 -3 6 -11 10 -16 10 -6
0 -7 -4 -4 -10z"/>
<path d="M1898 3473 c6 -2 18 -2 25 0 6 3 1 5 -13 5 -14 0 -19 -2 -12 -5z"/>
<path d="M2100 3470 c0 -5 5 -10 11 -10 5 0 7 5 4 10 -3 6 -8 10 -11 10 -2 0
-4 -4 -4 -10z"/>
<path d="M68 3463 c-10 -2 -18 -13 -18 -24 0 -16 3 -18 19 -10 10 6 21 17 25
26 6 15 4 16 -26 8z"/>
<path d="M1965 3460 c27 -12 43 -12 25 0 -8 5 -22 9 -30 9 -10 0 -8 -3 5 -9z"/>
<path d="M1408 3442 c-10 -8 -61 -25 -113 -38 -85 -21 -225 -80 -249 -104 -13
-13 -36 -13 -36 0 0 6 7 10 15 10 8 0 15 5 15 10 0 22 -24 7 -75 -45 l-53 -55
-4 29 c-4 24 3 35 46 73 28 25 61 50 74 57 12 6 22 18 22 26 0 19 -19 19 -26
0 -3 -8 -26 -17 -50 -21 -24 -3 -47 -11 -50 -16 -3 -5 -11 -5 -19 2 -10 8 -14
4 -19 -15 -4 -14 -4 -30 -1 -35 3 -5 0 -18 -7 -29 -11 -18 -10 -23 7 -35 16
-12 17 -16 6 -30 -7 -9 -17 -13 -22 -10 -5 3 -9 0 -9 -5 0 -6 -6 -11 -13 -11
-11 0 -37 -59 -37 -84 0 -18 29 -2 34 19 4 14 11 25 16 25 18 0 11 -25 -15
-52 -14 -15 -25 -32 -25 -38 0 -5 -5 -10 -11 -10 -5 0 -7 5 -4 10 4 6 2 17 -4
24 -13 15 5 75 35 121 14 22 15 31 6 46 -7 10 -12 25 -12 33 0 7 -10 16 -22
20 -18 5 -31 -3 -60 -37 -20 -23 -43 -41 -51 -39 -8 1 -17 -6 -21 -15 -3 -10
-9 -24 -12 -32 -4 -9 -2 -11 5 -7 13 9 15 -23 1 -44 -6 -9 -5 -17 3 -23 9 -6
7 -11 -7 -20 -10 -7 -32 -23 -48 -36 -27 -22 -28 -26 -14 -36 11 -9 16 -28 16
-64 0 -40 3 -51 16 -51 12 0 15 -6 11 -21 -4 -15 1 -22 18 -29 20 -8 23 -14
19 -42 -4 -22 2 -47 15 -73 11 -22 20 -35 21 -30 0 6 9 -1 20 -15 16 -21 21
-22 29 -10 5 8 7 18 5 22 -3 4 2 18 10 30 20 28 20 38 1 38 -10 0 -15 10 -15
30 0 17 5 30 10 30 6 0 10 -9 10 -21 0 -11 5 -17 10 -14 6 4 8 11 5 16 -4 5
-1 17 4 26 6 11 11 13 11 5 0 -7 4 -11 10 -7 11 7 -5 56 -23 67 -6 4 -17 2
-23 -3 -8 -7 -14 -7 -18 0 -4 6 5 18 18 27 16 9 28 29 32 50 6 34 19 45 26 22
7 -19 38 -1 38 22 0 11 4 20 10 20 5 0 14 10 21 21 9 17 8 23 -2 30 -12 7 -11
11 1 19 19 12 27 12 34 1 7 -10 -21 -69 -45 -94 -19 -21 -17 -55 6 -90 19 -29
12 -49 -29 -84 -14 -13 -26 -27 -26 -33 0 -16 30 -12 36 5 4 8 12 15 20 15 7
0 11 -6 8 -14 -3 -8 0 -17 6 -21 6 -4 8 -20 4 -41 -4 -24 -2 -34 6 -34 7 0 10
-7 7 -15 -4 -8 -2 -17 3 -20 6 -4 10 -15 10 -26 0 -10 4 -19 9 -19 13 0 20
-63 9 -77 -7 -9 -7 -13 2 -13 7 0 -1 -13 -18 -30 -18 -16 -39 -30 -47 -30 -8
0 -15 -8 -15 -19 0 -21 -23 -45 -33 -34 -4 3 -7 2 -7 -4 0 -19 39 -22 53 -4 6
9 24 24 39 33 40 26 40 3 1 -56 -34 -53 -44 -106 -19 -106 8 0 19 14 25 30 5
17 24 38 40 48 17 9 31 23 31 30 0 6 7 12 15 12 12 0 6 -13 -20 -46 -39 -52
-46 -79 -16 -69 13 4 20 0 24 -16 7 -27 1 -39 -18 -39 -20 0 -12 -60 10 -76
13 -10 14 -16 6 -33 -9 -16 -7 -34 8 -81 11 -33 23 -88 27 -123 3 -34 15 -102
25 -151 13 -58 16 -92 10 -100 -6 -7 -6 -17 -1 -26 6 -8 10 -34 10 -57 0 -23
5 -45 10 -48 6 -3 10 -28 10 -54 0 -26 3 -51 7 -55 7 -7 11 -66 17 -271 3 -84
15 -200 30 -290 14 -82 45 -269 70 -415 24 -146 49 -301 55 -345 20 -140 18
-135 57 -135 38 0 39 3 24 80 -35 188 -48 265 -44 272 3 4 0 8 -5 8 -6 0 -11
21 -11 48 0 26 -5 63 -10 82 -6 19 -18 78 -26 130 -9 52 -24 147 -34 210 -10
63 -25 149 -32 190 -18 94 -12 124 25 128 15 2 27 -1 27 -7 0 -6 -5 -11 -10
-11 -6 0 -2 -17 8 -37 21 -41 30 -82 67 -308 105 -626 125 -743 130 -762 5
-21 11 -23 79 -23 l74 0 15 38 c9 21 19 56 23 78 8 45 59 166 87 207 19 27 50
36 62 16 4 -6 -2 -21 -14 -33 -22 -23 -28 -61 -11 -71 18 -11 11 -25 -13 -25
-29 0 -47 -35 -47 -90 0 -26 -5 -40 -13 -40 -13 0 -47 -50 -47 -69 0 -7 38
-11 114 -11 96 0 120 3 148 20 37 21 83 17 74 -6 -4 -11 11 -14 77 -14 l82 0
28 36 c44 54 23 111 -24 68 -17 -15 -19 -14 -25 11 -4 16 -2 36 4 45 13 22
-10 108 -45 164 -22 34 -28 37 -54 32 -34 -6 -37 -1 -10 14 15 8 28 5 54 -10
31 -18 35 -19 41 -4 3 9 4 19 1 24 -3 4 12 20 32 36 26 20 47 27 79 27 69 0
93 -36 40 -61 -20 -9 -24 -18 -24 -60 0 -30 -6 -60 -16 -73 -9 -13 -16 -27
-16 -31 0 -14 21 -9 38 9 14 14 17 14 20 2 1 -8 16 -20 32 -28 36 -15 40 -41
7 -41 -13 0 -31 -6 -40 -13 -15 -10 -16 -16 -5 -40 12 -25 17 -27 46 -22 40 7
62 -8 62 -41 0 -27 -27 -33 -49 -11 -10 10 -12 8 -9 -8 3 -18 12 -20 111 -23
59 -1 107 -1 107 2 0 2 -12 57 -26 122 -14 66 -29 142 -33 169 -4 28 -10 55
-14 61 -11 19 -127 566 -127 601 0 29 -10 26 180 52 215 29 195 34 214 -50 9
-39 16 -86 16 -105 0 -18 4 -35 9 -38 5 -3 9 -22 9 -41 0 -44 -17 -54 -111
-66 -72 -9 -85 -14 -74 -26 6 -5 51 3 182 34 19 4 22 -3 33 -59 7 -35 13 -71
15 -82 3 -28 -41 -55 -113 -68 -71 -12 -93 -24 -71 -37 15 -10 105 9 163 33
45 19 48 15 55 -64 6 -58 5 -59 -27 -78 -18 -11 -53 -23 -79 -27 -59 -9 -87
-23 -73 -37 13 -13 84 3 150 33 53 25 67 16 29 -17 l-28 -24 31 6 c18 4 30 2
30 -4 0 -19 -60 -53 -123 -70 -41 -12 -62 -22 -62 -32 0 -21 34 -16 109 16 95
40 100 41 87 16 -12 -23 -53 -44 -121 -63 -47 -13 -75 -29 -49 -29 27 0 111
30 146 51 19 12 36 19 39 16 3 -3 8 -23 11 -44 7 -50 -15 -70 -109 -103 -40
-14 -73 -31 -76 -37 -9 -29 85 -3 161 45 22 13 40 22 41 20 17 -27 23 -57 13
-67 -8 -8 19 -11 104 -11 l116 0 6 97 c9 125 7 2510 -2 2543 -3 14 -13 26 -21
27 -116 18 -140 19 -140 5 0 -12 -3 -12 -15 -2 -12 10 -15 9 -15 -6 -1 -17 -4
-16 -24 7 -19 22 -33 27 -97 32 -68 5 -157 -7 -160 -22 -1 -3 -3 -32 -4 -64
-2 -32 -8 -64 -14 -70 -6 -6 -11 -26 -11 -43 0 -18 -5 -36 -11 -40 -7 -4 -8
-20 -4 -41 4 -24 1 -43 -13 -66 -14 -22 -21 -60 -26 -122 -5 -87 -20 -171 -45
-264 -7 -24 -12 -62 -11 -85 3 -67 1 -86 -10 -86 -6 0 -15 11 -20 25 -5 14
-13 24 -17 24 -5 -1 -24 5 -44 14 -28 13 -37 23 -42 49 -3 18 -10 45 -16 60
-9 24 -14 26 -48 21 -21 -3 -56 -12 -77 -20 -42 -14 -57 -10 -38 9 18 18 14
31 -7 25 -14 -3 -18 -1 -14 9 6 17 25 18 41 2 9 -9 12 -9 12 0 0 7 -4 12 -10
12 -5 0 -10 4 -10 9 0 15 39 24 53 13 16 -13 77 -26 77 -16 0 13 -32 118 -41
136 -5 10 -9 38 -9 63 0 41 -2 45 -25 45 -18 0 -26 7 -31 24 -3 14 -14 32 -25
42 -10 9 -19 26 -19 36 0 11 -9 22 -20 25 -23 6 -28 43 -5 43 18 0 35 31 35
62 0 17 -3 19 -9 9 -5 -8 -14 -10 -22 -6 -8 5 -11 5 -7 1 9 -10 -28 -46 -47
-46 -8 0 -15 5 -15 10 0 6 -14 10 -31 10 -17 0 -28 4 -24 10 3 6 2 10 -4 10
-5 0 -13 -4 -16 -10 -11 -17 -62 -11 -101 12 -21 12 -33 23 -27 25 14 5 63
-15 63 -25 0 -5 11 -7 25 -4 31 5 32 24 4 61 -18 24 -28 29 -59 27 -46 -2 -70
-20 -70 -53 0 -20 -3 -22 -17 -15 -12 7 -21 4 -35 -12 -12 -14 -20 -17 -25
-10 -11 16 -63 15 -63 -2 0 -21 -38 -38 -56 -23 -11 9 -17 9 -28 0 -12 -10
-17 -8 -25 8 -6 11 -8 26 -5 34 9 24 -24 47 -67 47 -35 0 -39 -3 -39 -24 0
-14 5 -28 10 -31 14 -9 12 -45 -3 -45 -7 0 -18 -9 -25 -20 -13 -21 -35 -18
-30 3 5 21 -42 117 -57 117 -10 0 -5 -14 16 -49 17 -27 28 -54 25 -59 -4 -7
-25 -5 -59 4 -69 18 -74 18 -82 -7 -5 -14 0 -28 15 -44 22 -23 22 -23 1 -30
-29 -9 -64 12 -55 33 13 31 16 80 5 86 -20 13 -12 26 27 41 20 9 39 16 42 17
3 0 14 7 25 14 11 8 28 14 38 14 11 0 33 6 50 14 18 7 53 21 80 31 47 17 63
35 30 35 -35 -1 -249 -49 -303 -69 -115 -41 -186 -69 -215 -85 -32 -17 -65
-21 -65 -8 0 4 23 17 50 29 28 12 50 27 50 33 0 5 7 10 15 10 31 0 135 40 177
69 47 32 142 66 213 76 25 4 48 11 51 16 8 13 -11 11 -96 -8 -41 -9 -95 -17
-120 -16 -72 1 -150 15 -150 25 0 6 -7 8 -15 4 -8 -3 -15 -2 -15 3 0 14 44 21
51 9 4 -6 12 -7 18 -3 9 5 9 10 1 20 -12 15 -91 9 -102 -8 -3 -6 -8 1 -10 14
-2 18 -10 24 -33 26 -16 1 -31 7 -33 13 -7 21 -21 9 -24 -22 l-3 -32 -29 25
c-25 22 -27 28 -17 48 7 12 10 25 7 29 -3 3 -6 0 -6 -6 0 -15 -27 -15 -36 0
-12 19 28 40 64 34 23 -3 45 2 70 16 93 54 100 55 242 45 49 -3 81 -1 90 6 21
16 50 63 50 80 0 8 10 19 23 25 l22 11 -24 0 c-39 1 -153 -19 -194 -35 -20 -8
-52 -14 -70 -14 l-32 1 40 19 c22 10 43 16 48 13 4 -2 6 -1 5 4 -3 9 12 13 28
6 15 -6 90 21 86 31 -2 5 2 13 10 17 8 6 -5 9 -34 9 -54 0 -62 13 -18 29 17 5
30 15 30 20 0 16 -10 14 -122 -25 -27 -9 -22 -25 6 -20 14 3 27 -1 29 -9 5
-12 -53 -32 -143 -51 l-25 -5 25 16 25 16 -26 -5 c-36 -8 -55 15 -37 44 11 17
11 22 -2 30 -13 8 -12 10 3 10 10 0 20 7 23 15 4 10 13 13 25 10 11 -4 19 -2
19 4 0 8 35 16 110 24 9 1 14 -5 12 -15 -4 -25 15 -31 27 -9 7 12 26 22 53 26
24 3 52 10 63 15 91 39 191 56 223 36 7 -4 16 -5 21 -2 5 4 7 -3 4 -13 -3 -11
-11 -17 -17 -15 -7 3 -18 -2 -25 -10 -7 -8 -18 -13 -26 -10 -7 3 -15 1 -18 -3
-3 -5 35 -10 85 -11 115 -3 146 -17 57 -27 -35 -4 -71 -11 -79 -16 -19 -11
-36 -10 195 -13 199 -4 235 1 235 30 0 15 -28 65 -44 75 -5 4 -6 11 -2 17 12
19 -13 23 -32 5 -40 -39 -82 -63 -121 -69 l-41 -7 6 34 c3 19 7 44 10 56 3 19
-2 22 -49 28 -119 16 -268 9 -407 -19 -74 -15 -140 -32 -146 -37 -8 -7 -15 -6
-19 2 -9 14 10 27 53 35 17 3 32 10 32 15 0 12 -33 12 -45 0 -6 -6 -35 -13
-65 -16 -30 -4 -51 -3 -47 2 5 4 12 8 15 9 4 0 23 7 43 16 19 8 76 26 127 39
51 12 92 27 92 32 0 4 5 5 11 2 5 -4 19 1 29 10 14 13 30 16 57 12 21 -3 30
-3 21 -1 -10 3 -18 10 -18 15 0 14 -150 6 -172 -9z m639 -227 c2 -7 -13 -9
-38 -7 -23 3 -36 8 -30 12 18 10 64 7 68 -5z m33 5 c0 -5 -4 -10 -10 -10 -5 0
-10 5 -10 10 0 6 5 10 10 10 6 0 10 -4 10 -10z m-1190 -24 c0 -2 -7 -9 -15
-16 -12 -10 -15 -10 -15 4 0 9 7 16 15 16 8 0 15 -2 15 -4z m160 -165 c0 -10
-62 -52 -68 -46 -9 8 35 45 66 54 1 1 2 -3 2 -8z m147 -7 c-3 -3 -12 -4 -19
-1 -8 3 -5 6 6 6 11 1 17 -2 13 -5z m-65 -389 c32 10 19 -2 -27 -24 -30 -15
-43 -16 -66 -7 -36 13 -37 29 -1 42 20 8 33 7 49 -4 13 -8 31 -11 45 -7z m148
-125 c0 -5 -2 -10 -4 -10 -3 0 -8 5 -11 10 -3 6 -1 10 4 10 6 0 11 -4 11 -10z
m610 -10 c0 -11 -4 -20 -10 -20 -5 0 -10 9 -10 20 0 11 5 20 10 20 6 0 10 -9
10 -20z m-620 -41 c0 -5 -12 -9 -27 -9 -26 0 -26 1 -8 14 20 14 35 12 35 -5z
m693 -59 c29 -34 14 -107 -23 -117 -11 -3 -20 -11 -20 -19 0 -17 -15 -25 -33
-18 -18 6 -28 83 -14 102 6 8 6 12 -2 12 -6 0 -11 9 -11 20 0 13 9 22 28 26
15 3 32 7 37 9 18 6 20 5 38 -15z m-593 -99 c0 -5 -9 -11 -20 -14 -22 -6 -28
8 -7 16 19 8 27 8 27 -2z m397 -12 c21 -7 32 -19 36 -35 5 -26 -10 -33 -19 -9
-9 23 -30 18 -43 -11 -9 -21 -14 -24 -26 -14 -8 7 -15 17 -15 22 0 8 30 58 35
58 1 0 16 -5 32 -11z m-300 -34 c20 -42 12 -53 -22 -31 -15 10 -25 26 -25 41
0 37 27 31 47 -10z m148 -75 c-3 -5 -12 -10 -18 -10 -7 0 -6 4 3 10 19 12 23
12 15 0z m235 -30 c0 -11 -4 -20 -10 -20 -5 0 -10 2 -10 4 0 2 -3 11 -6 20 -4
11 -1 16 10 16 9 0 16 -8 16 -20z m318 -9 c-12 -16 -31 -40 -42 -55 -20 -27
-39 -27 -29 2 13 33 58 82 76 82 17 0 17 -3 -5 -29z m-288 -15 c0 -8 -6 -21
-13 -28 -7 -7 -16 -21 -20 -31 -4 -11 -16 -21 -27 -24 -11 -3 -20 -9 -20 -13
0 -15 -48 -39 -69 -33 -17 4 -20 10 -14 31 4 17 2 23 -6 18 -6 -4 -11 -1 -11
7 0 8 7 17 15 21 8 3 15 15 15 26 0 17 6 20 39 20 25 0 41 -5 45 -15 8 -21 36
-19 36 3 0 10 3 22 7 25 11 12 23 8 23 -7z m135 -17 c4 -5 18 -14 31 -19 13
-5 24 -16 24 -24 0 -18 -36 -53 -62 -62 -10 -3 -18 -10 -18 -16 0 -6 -13 -8
-28 -6 -24 3 -28 1 -27 -16 1 -12 9 -22 17 -24 10 -2 14 -10 11 -20 -3 -14
-12 -17 -39 -14 -40 5 -44 -10 -13 -47 14 -17 23 -21 28 -13 4 6 26 18 51 27
57 20 72 34 66 59 -3 12 -2 26 2 32 12 18 44 25 58 13 7 -6 18 -8 23 -5 5 4
12 2 16 -4 8 -13 -36 -54 -75 -70 -17 -7 -30 -21 -32 -33 -2 -15 -14 -25 -35
-32 -35 -10 -45 -38 -18 -49 27 -10 0 -42 -62 -72 -32 -16 -65 -38 -74 -49
-15 -17 -20 -18 -42 -6 -28 15 -44 58 -28 74 18 18 13 37 -9 37 -24 0 -25 17
-6 55 11 22 12 32 3 46 -11 18 -13 18 -24 3 -7 -9 -14 -21 -16 -27 -2 -6 -11
-5 -25 2 -17 9 -21 18 -17 32 5 15 1 22 -14 26 -24 6 -26 15 -11 44 19 34 80
21 80 -16 0 -13 3 -26 8 -29 13 -8 45 22 39 37 -6 16 35 43 51 33 6 -4 9 5 6
24 -4 25 -1 30 20 36 15 3 26 10 26 15 0 5 15 12 33 17 22 6 33 15 35 30 4 23
35 31 47 11z m-645 -18 c0 -6 -9 -9 -20 -8 -11 1 -20 5 -20 9 0 4 9 8 20 8 11
0 20 -4 20 -9z m274 -26 c-4 -8 -10 -15 -15 -15 -5 0 -9 7 -9 15 0 8 7 15 15
15 9 0 12 -6 9 -15z m-304 -5 c0 -5 -4 -10 -10 -10 -5 0 -10 5 -10 10 0 6 5
10 10 10 6 0 10 -4 10 -10z m270 -25 c0 -7 9 -17 21 -20 14 -5 18 -12 13 -23
-3 -10 -9 -30 -13 -46 -5 -22 -15 -31 -51 -43 -25 -8 -56 -25 -70 -38 -59 -53
-134 -67 -122 -22 3 12 12 29 20 37 11 11 12 15 2 18 -7 3 -15 0 -19 -6 -4 -7
-13 -5 -25 4 -19 13 -19 14 -2 14 21 0 56 36 56 57 0 7 6 13 14 13 8 0 24 12
36 28 14 18 23 23 26 15 9 -22 32 -14 54 17 18 25 25 28 41 20 10 -6 19 -17
19 -25z m410 -74 c0 -5 -8 -15 -17 -22 -16 -12 -17 -12 -6 2 7 9 10 19 6 22
-3 4 -1 7 5 7 7 0 12 -4 12 -9z m150 -41 c0 -5 -4 -10 -10 -10 -5 0 -10 5 -10
10 0 6 5 10 10 10 6 0 10 -4 10 -10z m132 -45 c0 -5 -5 -11 -11 -13 -6 -2 -11
4 -11 13 0 9 5 15 11 13 6 -2 11 -8 11 -13z m-632 -45 c0 -5 -5 -10 -11 -10
-6 0 -23 -12 -38 -27 -44 -44 -84 -73 -111 -79 -14 -4 -29 -12 -35 -18 -19
-23 -85 -55 -100 -50 -27 11 -16 32 23 45 20 6 75 38 121 70 47 33 92 59 102
59 10 0 21 5 24 10 3 6 10 10 16 10 5 0 9 -4 9 -10z m464 -115 c-5 -12 -62
-45 -80 -45 -13 0 -44 -33 -44 -47 0 -7 11 -13 25 -13 15 0 25 -6 25 -14 0 -8
8 -17 19 -21 17 -5 17 -10 7 -63 -10 -50 -15 -59 -43 -72 -19 -8 -33 -23 -33
-33 0 -14 -5 -16 -26 -11 -17 4 -29 2 -35 -7 -16 -26 -9 -35 36 -47 31 -8 48
-19 54 -35 5 -12 21 -33 35 -46 18 -17 26 -35 26 -58 0 -18 5 -42 12 -53 15
-24 -4 -66 -34 -73 -20 -6 -21 3 -2 66 7 22 -3 22 -48 -3 l-37 -19 -3 22 c-4
33 -38 32 -99 -1 -66 -36 -98 -44 -138 -36 -22 5 -28 10 -22 18 5 6 7 31 6 56
-3 41 11 108 26 120 3 3 9 22 13 42 8 43 85 140 119 148 16 4 22 14 23 35 0
17 2 37 5 45 5 18 -40 16 -80 -4 -33 -17 -101 -29 -101 -19 1 9 76 63 88 63 4
0 30 12 57 27 61 32 237 101 247 96 4 -2 5 -10 2 -18z m-577 -137 c25 -37 53
-102 36 -84 -4 3 -12 -3 -20 -14 -17 -24 -36 -25 -68 -4 -14 9 -33 13 -45 9
-11 -4 -20 -2 -20 4 0 6 5 11 10 11 21 0 50 41 56 80 4 22 10 40 14 40 3 0 20
-19 37 -42z m1043 -135 c0 -39 -2 -43 -25 -43 -16 0 -25 6 -25 15 0 12 -13 15
-55 15 -51 0 -55 -2 -52 -22 1 -13 -4 -23 -14 -25 -11 -3 -18 9 -26 44 -7 26
-15 56 -18 65 -6 15 3 18 92 20 113 3 122 -2 123 -69z m-900 -18 c-6 -19 -22
-48 -35 -63 -13 -16 -27 -40 -30 -54 -6 -22 -3 -26 21 -32 l29 -8 -25 -19
c-14 -10 -30 -19 -37 -19 -6 0 -18 -9 -26 -20 -22 -32 -105 -91 -135 -96 -15
-3 -32 -6 -39 -9 -6 -2 -17 3 -24 11 -9 11 -9 18 3 32 9 9 23 32 32 50 10 18
26 36 37 40 11 4 27 23 37 42 11 23 34 44 67 62 27 14 55 34 62 44 26 35 68
82 71 79 2 -2 -1 -20 -8 -40z m-310 -95 c0 -5 -5 -10 -11 -10 -5 0 -7 5 -4 10
3 6 8 10 11 10 2 0 4 -4 4 -10z m1252 -47 c9 -27 20 -72 24 -102 6 -43 4 -53
-7 -49 -8 3 -18 21 -24 40 -15 55 -25 57 -25 5 0 -56 -11 -59 -58 -16 -32 29
-35 49 -6 49 19 0 18 26 -1 34 -22 8 -19 53 4 66 27 14 28 13 45 -17 l15 -28
1 33 c0 46 13 40 32 -15z m-208 31 c9 -3 16 -15 16 -26 0 -27 18 -58 35 -58
23 0 29 -22 10 -36 -18 -13 -18 -16 -2 -49 l17 -35 -34 -17 c-41 -19 -66 -12
-66 19 1 65 -9 137 -20 158 -11 20 -10 25 6 37 21 15 18 15 38 7z m-1024 -34
c-26 -20 -50 -26 -50 -12 0 8 45 29 65 31 6 0 -1 -8 -15 -19z m240 -118 c0
-10 -7 -28 -16 -41 -10 -14 -13 -26 -7 -30 16 -10 24 -41 10 -41 -7 0 -4 -5 6
-11 20 -12 22 -29 5 -52 -11 -14 -19 -15 -50 -6 -43 11 -44 15 -23 66 8 19 15
46 15 59 0 40 18 74 40 74 12 0 20 -7 20 -18z m37 -49 c-3 -10 -5 -4 -5 12 0
17 2 24 5 18 2 -7 2 -21 0 -30z m27 -50 c14 -29 11 -93 -6 -93 -15 0 -37 63
-31 93 7 34 19 34 37 0z m-154 -13 c0 -5 -2 -10 -4 -10 -3 0 -8 5 -11 10 -3 6
-1 10 4 10 6 0 11 -4 11 -10z m390 -37 c-1 -11 -26 -43 -33 -43 -4 0 -1 11 5
25 10 23 28 35 28 18z m118 2 c20 -5 22 -8 12 -20 -7 -8 -19 -15 -26 -15 -8 0
-14 -4 -14 -10 0 -5 -6 -10 -14 -10 -9 0 -12 7 -9 20 4 14 0 20 -11 20 -10 0
-15 4 -12 8 6 10 45 13 74 7z m67 -45 c11 -17 -5 -32 -21 -19 -7 6 -11 15 -8
20 7 12 21 11 29 -1z m-100 -32 c25 -11 34 -28 15 -28 -5 0 -10 -4 -10 -9 0
-5 20 -12 45 -15 25 -4 48 -8 52 -9 4 -1 9 7 12 18 4 22 21 36 33 29 25 -16
-29 -71 -73 -76 l-34 -4 33 -13 c36 -14 42 -35 13 -50 -20 -11 -73 0 -96 19
-16 14 -9 40 11 40 8 0 14 4 14 9 0 8 -23 21 -39 21 -13 0 -51 -37 -51 -49 0
-14 -6 -14 -31 0 -19 10 -18 13 25 55 25 24 46 51 46 59 0 18 2 18 35 3z
m-150 -18 c-3 -5 -13 -10 -21 -10 -8 0 -12 5 -9 10 3 6 13 10 21 10 8 0 12 -4
9 -10z m321 -144 c-4 -18 -1 -25 14 -29 25 -6 29 -67 5 -67 -22 0 -18 -13 10
-38 14 -12 25 -28 25 -36 0 -19 -64 -50 -85 -42 -10 4 -15 -1 -15 -15 0 -13 6
-20 18 -18 40 4 82 -2 82 -11 0 -5 -14 -10 -31 -10 -18 0 -49 -5 -70 -12 -46
-13 -59 -6 -35 21 16 18 15 20 -28 50 -28 18 -46 25 -46 18 0 -7 4 -17 9 -22
4 -6 11 -24 14 -41 11 -60 -61 -102 -85 -49 -6 13 -24 29 -41 35 l-30 10 23
25 c19 21 21 25 7 25 -9 0 -17 -5 -17 -11 0 -6 -8 -9 -17 -7 -16 3 -36 51 -26
61 8 9 65 -12 77 -28 11 -15 14 -15 36 3 14 11 23 22 20 25 -3 2 -43 14 -90
26 -105 27 -151 49 -161 78 -7 20 -6 21 17 12 18 -6 39 -5 66 3 28 8 42 8 46
1 9 -13 123 -29 176 -25 30 3 49 14 85 48 25 24 47 44 49 44 2 0 1 -11 -2 -24z
m-497 -60 c20 -24 -4 -59 -34 -52 -17 4 -28 0 -39 -16 l-16 -22 -25 24 c-14
13 -25 32 -25 42 0 15 8 18 44 18 25 0 48 5 51 10 9 14 31 12 44 -4z m71 -137
c0 -6 -4 -7 -10 -4 -5 3 -10 11 -10 16 0 6 5 7 10 4 6 -3 10 -11 10 -16z m46
6 c-23 -17 -36 -19 -36 -6 0 5 8 12 18 14 32 9 37 6 18 -8z m-120 -55 c8 0 14
-7 14 -15 0 -16 -15 -17 -64 -6 l-29 6 26 14 c15 8 28 19 28 25 1 6 3 3 6 -6
2 -10 11 -18 19 -18z m121 -51 c1 -19 4 -45 5 -59 3 -21 -1 -25 -22 -25 -26 0
-27 2 -16 88 5 39 5 39 18 35 7 -3 13 -20 15 -39z m-180 -77 c-9 -10 -17 -27
-18 -38 0 -17 -1 -17 -11 3 -13 28 16 83 35 64 7 -7 6 -16 -6 -29z m216 -68
c-1 -10 9 -33 23 -51 43 -56 20 -129 -38 -121 -20 3 -23 9 -26 50 -2 26 2 57
8 68 9 16 8 25 -1 36 -9 11 -9 17 1 29 17 20 36 13 33 -11z m-290 -15 c15 -9
22 -9 25 -1 4 14 32 4 32 -12 0 -6 -19 -26 -41 -45 -39 -32 -41 -32 -60 -15
-22 20 -23 23 -9 58 11 29 21 32 53 15z m403 -14 c-3 -9 -11 -13 -16 -10 -8 5
-7 11 1 21 14 18 24 11 15 -11z"/>
<path d="M1832 1908 c-14 -14 -16 -48 -2 -48 10 0 26 48 18 55 -2 3 -10 -1
-16 -7z"/>
<path d="M1486 1991 c-8 -12 3 -41 15 -41 12 0 12 37 0 45 -5 3 -12 1 -15 -4z"/>
<path d="M1507 1926 c-6 -15 1 -26 15 -26 11 0 10 27 -1 34 -5 3 -11 0 -14 -8z"/>
<path d="M1420 1866 c0 -8 7 -16 15 -20 10 -4 15 1 15 14 0 11 -7 20 -15 20
-8 0 -15 -6 -15 -14z"/>
<path d="M2040 1201 c0 -11 29 -35 35 -29 10 9 -7 38 -21 38 -8 0 -14 -4 -14
-9z"/>
<path d="M1570 1320 c-8 -5 -22 -11 -31 -13 -12 -4 -15 -13 -12 -32 4 -15 -1
-33 -10 -43 -15 -17 -14 -63 2 -61 13 1 55 63 68 101 15 43 8 61 -17 48z"/>
<path d="M10 3440 c-9 -6 -10 -10 -3 -10 6 0 15 5 18 10 8 12 4 12 -15 0z"/>
<path d="M2136 3431 c-4 -5 -1 -22 4 -37 14 -37 5 -42 -26 -13 -20 18 -36 24
-70 23 -24 0 -44 3 -44 7 0 4 -39 7 -87 6 -53 -1 -87 -6 -85 -12 1 -5 7 -11
12 -11 6 -1 13 -3 18 -4 4 -1 17 -1 29 -1 11 1 47 -11 78 -28 53 -28 57 -29
75 -13 18 15 18 17 3 34 -15 17 -14 17 25 1 56 -21 103 -72 102 -109 -3 -121
1 -132 30 -94 11 14 20 41 20 63 0 43 -30 105 -48 99 -7 -2 -12 3 -12 12 0 10
6 13 15 10 20 -8 20 25 -1 54 -16 23 -29 28 -38 13z m28 -27 c3 -8 2 -12 -4
-9 -6 3 -10 10 -10 16 0 14 7 11 14 -7z"/>
<path d="M0 3310 c0 -67 4 -110 10 -110 6 0 10 4 10 9 0 4 12 25 26 46 19 29
25 48 22 77 -2 21 1 39 6 41 6 2 2 6 -7 10 -9 3 -17 2 -17 -3 0 -6 -7 -10 -15
-10 -17 0 -20 16 -5 25 13 8 3 25 -16 25 -11 0 -14 -21 -14 -110z"/>
<path d="M6003 3273 c9 -2 25 -2 35 0 9 3 1 5 -18 5 -19 0 -27 -2 -17 -5z"/>
<path d="M3228 2729 c-2 -272 -2 -997 0 -1612 l3 -1117 1584 0 1585 0 0 995
c0 810 -2 995 -13 995 -22 0 -34 19 -29 50 3 22 10 30 26 31 l21 0 -22 16
c-13 8 -23 24 -23 34 0 12 -7 19 -20 19 -11 0 -20 5 -20 10 0 6 5 10 12 10 6
0 1 9 -11 19 l-22 19 23 4 c22 4 22 5 3 13 -30 13 -35 26 -19 51 15 22 14 50
-6 108 -11 35 -49 60 -75 50 -16 -7 -21 11 -6 21 6 3 4 17 -4 32 -9 17 -11 31
-5 38 11 13 9 55 -2 55 -4 0 -8 -13 -8 -30 0 -20 -5 -30 -15 -30 -8 0 -15 7
-15 15 0 7 -8 18 -17 24 -12 6 -16 20 -15 45 2 29 -1 36 -16 36 -10 0 -23 -5
-30 -12 -9 -9 -12 -8 -12 5 0 9 -5 17 -10 17 -6 0 -10 8 -8 18 2 11 -3 16 -14
14 -10 -2 -18 3 -18 10 0 7 -21 35 -45 61 -25 26 -45 52 -45 57 0 5 -21 19
-46 31 -69 31 -72 35 -66 106 4 52 2 64 -12 69 -20 8 -21 30 -1 38 9 3 15 18
15 36 0 16 4 30 9 30 14 0 7 30 -10 41 -10 6 -10 9 -1 9 20 0 14 18 -10 27
-17 6 -5 9 47 14 39 3 -47 6 -190 7 l-260 2 -3 -68 c-4 -91 -31 -393 -38 -414
-3 -10 -10 -18 -15 -18 -5 0 -9 -6 -9 -14 0 -7 -14 -17 -32 -22 -29 -9 -35
-17 -42 -66 -1 -10 -5 -21 -9 -24 -10 -11 -8 94 8 371 8 137 13 251 11 253 -2
2 -465 6 -1030 9 l-1025 6 -3 -494z m1872 451 c0 -19 -1 -19 -20 -3 -11 10
-20 19 -20 20 0 2 9 3 20 3 13 0 20 -7 20 -20z m47 14 c-3 -3 -12 -4 -19 -1
-8 3 -5 6 6 6 11 1 17 -2 13 -5z m-117 -49 c0 -8 5 -15 12 -15 20 0 -33 -48
-60 -55 l-27 -7 34 -14 c32 -14 33 -16 27 -56 -4 -23 -11 -47 -16 -53 -6 -7
-8 -34 -5 -61 3 -27 4 -58 4 -69 -4 -71 2 -107 19 -128 18 -20 12 -30 -20 -29
-22 0 -23 -4 -21 -62 2 -33 3 -76 4 -94 1 -45 -9 -54 -86 -77 -53 -16 -70 -26
-86 -52 -12 -18 -24 -33 -28 -33 -11 0 -61 -115 -61 -139 0 -11 -9 -22 -19
-26 -19 -6 -31 -32 -31 -72 0 -17 -4 -21 -16 -16 -10 4 -22 -1 -29 -11 -10
-13 -18 -14 -39 -6 -17 6 -26 17 -25 27 4 32 -13 73 -38 93 -33 26 -73 27 -73
1 0 -12 -11 -21 -31 -27 -18 -5 -37 -18 -43 -29 -6 -11 -15 -23 -19 -26 -17
-12 17 -49 45 -49 16 0 28 -4 28 -9 0 -10 -73 -21 -140 -21 -72 0 -100 -27
-100 -95 0 -63 -15 -71 -88 -50 -147 42 -172 51 -172 61 0 6 -30 16 -67 24
-38 7 -81 19 -98 26 -16 7 -46 16 -65 22 -33 8 -32 9 35 16 151 15 315 50 315
66 0 6 7 10 16 10 12 0 15 7 12 24 -4 18 1 28 19 37 12 7 26 9 30 6 3 -4 13 2
20 13 8 11 19 18 24 14 15 -9 39 16 39 42 0 28 -21 23 -60 -14 -49 -46 -56
-46 -75 1 -10 23 -21 71 -24 107 -5 55 -10 67 -28 75 -31 13 -29 32 5 40 42 9
73 -7 122 -64 25 -28 52 -51 61 -51 33 0 92 32 125 68 18 20 37 33 41 29 4 -5
1 -12 -7 -17 -16 -10 -21 -48 -8 -56 5 -4 19 3 31 14 20 18 25 19 47 7 40 -23
50 -19 44 15 -8 36 10 40 47 12 53 -41 114 -47 152 -14 21 19 23 44 2 36 -9
-4 -15 0 -15 10 0 9 8 16 20 16 11 0 26 12 34 29 9 16 30 37 48 48 l34 20 -2
101 c-1 55 -4 105 -7 109 -11 17 12 222 28 252 12 24 24 32 55 37 33 5 39 11
42 33 5 39 108 93 108 56z m170 -25 c0 -5 -7 -7 -15 -4 -8 4 -15 8 -15 10 0 2
7 4 15 4 8 0 15 -4 15 -10z m57 -82 c-3 -8 -6 -5 -6 6 -1 11 2 17 5 13 3 -3 4
-12 1 -19z m0 -100 c-3 -7 -5 -2 -5 12 0 14 2 19 5 13 2 -7 2 -19 0 -25z m-10
-160 c-2 -24 -4 -7 -4 37 0 44 2 63 4 43 2 -21 2 -57 0 -80z m421 33 c9 -6 28
-12 42 -15 14 -4 37 -17 52 -31 24 -20 26 -28 18 -49 -9 -24 -13 -25 -53 -20
-32 5 -55 1 -90 -15 -26 -12 -47 -26 -47 -31 0 -15 53 -25 58 -12 7 23 19 12
14 -13 -2 -14 -8 -25 -13 -25 -20 0 2 -66 29 -90 16 -14 33 -35 36 -47 9 -28
18 -29 37 -5 20 23 35 58 50 109 10 34 9 46 -1 58 -16 19 -5 32 30 37 22 3 25
7 22 38 -2 29 0 32 8 18 6 -10 17 -18 24 -18 7 0 25 -13 41 -30 22 -23 25 -30
12 -30 -9 0 -17 -7 -17 -15 0 -11 7 -14 25 -9 29 7 33 -3 8 -21 -14 -11 -15
-16 -5 -28 9 -11 10 -17 2 -22 -6 -4 -9 -14 -6 -22 3 -8 -1 -21 -9 -29 -8 -9
-15 -29 -15 -45 0 -25 -3 -29 -19 -24 -15 4 -19 -1 -24 -29 -3 -19 -15 -44
-26 -55 -12 -12 -21 -31 -21 -44 0 -13 -5 -28 -12 -35 -6 -6 -12 -37 -12 -69
-1 -47 -5 -59 -21 -68 -12 -6 -19 -18 -17 -27 3 -13 -3 -18 -22 -18 -16 0 -27
-7 -31 -20 -3 -11 -14 -20 -23 -20 -9 0 -26 -7 -36 -15 -10 -8 -23 -12 -27 -9
-5 3 -9 1 -9 -5 0 -5 16 -15 35 -22 41 -15 45 -35 10 -51 -13 -6 -27 -18 -30
-27 -6 -19 -56 -51 -79 -51 -9 0 -24 -8 -34 -18 -10 -10 -32 -24 -50 -31 -34
-14 -34 -31 1 -31 17 0 22 -6 24 -26 2 -37 18 -51 39 -33 12 9 15 10 10 1 -4
-7 -2 -37 5 -67 13 -60 11 -69 -15 -59 -14 5 -15 9 -4 15 10 7 9 9 -5 9 -10 0
-29 7 -43 16 -30 20 -47 9 -19 -13 18 -14 18 -15 2 -9 -11 3 -28 -1 -41 -12
-18 -14 -21 -23 -15 -40 5 -12 6 -29 2 -37 -7 -19 22 -53 57 -68 20 -8 22 -11
8 -14 -19 -5 -25 -23 -8 -23 6 0 10 -7 10 -15 0 -8 5 -15 10 -15 16 0 50 -62
50 -90 1 -23 1 -23 12 -6 6 10 13 35 15 55 5 38 23 68 23 38 0 -9 7 -17 15
-17 8 0 15 -4 15 -10 0 -5 -6 -10 -14 -10 -9 0 -19 -20 -26 -50 -7 -28 -16
-53 -21 -56 -6 -3 -6 -11 1 -19 8 -9 8 -15 0 -20 -6 -3 -8 -11 -5 -16 3 -5 0
-6 -7 -4 -13 5 -15 -1 -22 -81 -1 -16 -5 -35 -8 -40 -4 -5 -5 -46 -3 -91 l4
-81 -59 0 c-33 1 -60 5 -60 10 0 17 -54 30 -75 17 -14 -8 -20 -9 -23 0 -2 6
-24 11 -48 11 -24 0 -44 3 -44 8 0 4 -14 7 -30 8 -20 1 -37 10 -51 28 -11 15
-30 26 -42 25 -12 0 -16 -3 -9 -6 17 -7 15 -23 -2 -23 -21 0 -28 15 -20 44 6
25 24 30 52 13 6 -5 12 -4 12 1 0 10 -26 24 -45 26 -5 1 -14 11 -20 23 -10 24
-33 34 -80 38 -38 2 -68 15 -78 32 -4 7 -13 13 -19 13 -12 0 -58 47 -58 60 0
5 -13 18 -29 29 -28 20 -28 20 -69 1 -49 -24 -78 -25 -86 -5 -3 8 -14 15 -25
15 -21 0 -28 -15 -35 -80 -7 -67 -19 -120 -27 -126 -5 -3 -9 -13 -9 -24 0 -27
-23 -32 -153 -36 -84 -2 -137 1 -180 12 -34 8 -69 16 -77 16 -8 1 -24 11 -36
23 -28 31 -84 47 -141 42 -58 -6 -118 15 -109 38 3 10 -1 15 -12 15 -9 0 6 14
33 30 39 22 75 32 159 44 60 8 113 13 118 10 4 -3 11 1 14 9 3 8 17 17 32 20
31 6 135 92 140 115 2 8 -1 17 -6 21 -10 6 -15 31 -13 68 1 30 102 133 129
133 12 0 31 -13 43 -30 18 -24 26 -27 41 -19 10 6 28 7 39 4 13 -4 29 2 49 18
31 26 97 53 107 43 3 -3 18 3 32 13 36 25 59 32 66 21 9 -14 21 -12 41 7 15
16 18 16 45 0 16 -9 36 -14 44 -11 9 4 18 -3 24 -19 11 -28 30 -38 60 -30 27
7 28 43 2 43 -11 0 -26 6 -33 13 -52 48 -108 67 -108 36 0 -4 -7 -6 -16 -2
-15 5 -15 7 0 15 21 12 20 28 -1 28 -31 1 -51 24 -46 51 5 30 -36 79 -67 79
-26 0 -26 16 0 23 14 4 28 -4 48 -28 20 -25 31 -32 42 -25 12 7 12 12 -3 28
-9 10 -17 23 -17 29 0 6 -7 13 -15 17 -8 3 -15 10 -15 15 0 17 33 21 50 6 9
-8 22 -15 28 -15 7 0 12 -4 12 -10 0 -5 7 -10 16 -10 12 0 15 6 10 25 -3 14
-9 36 -12 49 -6 23 -4 24 34 22 36 -2 40 0 37 21 -2 17 3 23 17 23 14 0 19 6
17 23 -1 12 1 29 4 37 3 8 8 29 10 45 9 52 73 178 107 210 20 20 42 30 61 30
31 0 36 6 70 79 11 23 11 30 2 33 -7 3 -13 13 -13 24 0 11 5 16 13 13 8 -3 17
12 26 41 13 45 64 101 82 89 5 -3 9 1 9 9 0 14 27 29 147 84 55 25 83 53 52
53 -8 0 -8 5 1 15 14 17 61 20 88 6z m-427 -138 c-9 -16 -10 -16 -11 4 0 12 3
30 7 40 7 16 8 16 11 -4 2 -12 -1 -30 -7 -40z m526 -79 c-3 -3 -12 -4 -19 -1
-8 3 -5 6 6 6 11 1 17 -2 13 -5z m-52 -14 c-3 -5 -11 -10 -16 -10 -6 0 -7 5
-4 10 3 6 11 10 16 10 6 0 7 -4 4 -10z m240 -111 c11 -17 -1 -21 -15 -4 -8 9
-8 15 -2 15 6 0 14 -5 17 -11z m321 -146 c-10 -10 -19 5 -10 18 6 11 8 11 12
0 2 -7 1 -15 -2 -18z m1 -40 c-8 -7 -37 9 -31 19 3 5 12 4 20 -3 8 -6 13 -14
11 -16z m-1727 -232 c0 -18 -20 -23 -60 -16 -56 9 -50 25 10 25 28 0 50 -4 50
-9z m176 -235 c24 -24 5 -50 -32 -45 -4 0 -11 -5 -16 -13 -7 -10 -11 -10 -15
0 -2 6 -12 12 -21 12 -10 0 -13 -3 -7 -8 15 -11 17 -42 3 -43 -7 0 -22 -2 -33
-4 -11 -2 -29 -5 -40 -7 -11 -2 -23 -7 -27 -13 -4 -5 -10 -7 -13 -3 -4 4 6 14
22 24 15 10 42 32 58 49 30 30 82 64 98 65 5 0 15 -6 23 -14z m-219 -161 c0
-8 -7 -15 -15 -15 -12 0 -12 3 -2 15 7 8 13 15 15 15 1 0 2 -7 2 -15z m1043
-85 c0 -5 -4 -10 -10 -10 -5 0 -10 5 -10 10 0 6 5 10 10 10 6 0 10 -4 10 -10z
m65 -120 c-3 -5 -11 -10 -16 -10 -6 0 -7 5 -4 10 3 6 11 10 16 10 6 0 7 -4 4
-10z m186 -447 c3 -102 -11 -145 -57 -172 -19 -12 -49 -21 -66 -21 -38 0 -94
40 -100 72 -3 13 -9 31 -13 42 -7 16 -5 17 22 12 32 -7 38 -3 121 72 23 20 47
32 64 32 25 0 28 -3 29 -37z m-351 -133 c0 -5 -7 -10 -15 -10 -8 0 -15 5 -15
10 0 6 7 10 15 10 8 0 15 -4 15 -10z m100 -4 c0 -8 11 -23 25 -34 14 -11 25
-25 25 -31 0 -6 5 -11 10 -11 6 0 10 -5 10 -11 0 -5 -4 -7 -10 -4 -17 11 3
-29 22 -43 10 -7 18 -21 17 -30 0 -13 -3 -11 -11 6 -6 13 -17 21 -24 18 -7 -3
-14 -1 -16 4 -3 7 -59 14 -95 11 -17 -1 -4 -31 13 -31 8 0 20 -11 26 -25 6
-14 16 -25 22 -25 16 0 33 -46 41 -109 5 -38 4 -52 -4 -47 -24 15 -10 -50 17
-84 45 -54 102 -181 102 -224 0 -45 -38 -176 -51 -176 -6 0 -5 8 1 19 7 13 7
22 0 26 -5 3 -10 3 -10 -2 0 -4 -18 -9 -39 -10 -38 -2 -41 0 -76 53 -42 62
-38 72 25 75 34 2 34 2 5 6 -36 6 -105 70 -105 98 0 38 -28 65 -68 65 -55 0
-109 18 -138 45 -15 14 -31 25 -36 25 -5 0 -8 8 -6 17 2 11 -5 19 -17 21 -25
5 -57 41 -48 55 3 5 1 7 -4 4 -6 -4 -14 0 -17 9 -7 19 1 54 13 54 4 0 35 27
69 60 33 33 67 60 74 60 7 0 31 12 52 26 22 15 49 28 60 29 12 1 24 3 29 4 4
0 7 10 7 20 0 11 21 38 48 60 51 44 62 49 62 27z"/>
<path d="M4920 3050 c0 -5 -7 -10 -16 -10 -24 0 -11 -23 20 -33 33 -11 36 -9
29 26 -5 25 -33 40 -33 17z"/>
<path d="M5500 1681 c0 -5 8 -15 18 -22 15 -12 16 -12 5 2 -7 9 -10 19 -6 22
3 4 1 7 -5 7 -7 0 -12 -4 -12 -9z"/>
<path d="M5132 1008 c7 -19 38 -22 38 -4 0 10 -9 16 -21 16 -12 0 -19 -5 -17
-12z"/>
<path d="M5478 943 c-10 -2 -18 -8 -18 -13 0 -4 9 -6 20 -3 11 3 20 9 20 14 0
5 -1 8 -2 8 -2 -1 -11 -3 -20 -6z"/>
<path d="M13 3173 c-7 -2 -13 -16 -13 -30 l0 -26 20 26 c28 35 26 44 -7 30z"/>
<path d="M1495 3150 l-30 -8 27 -1 c15 0 30 4 33 9 3 6 5 9 3 9 -2 -1 -16 -5
-33 -9z"/>
<path d="M2010 3142 c0 -10 78 -30 138 -38 18 -2 20 1 13 14 -5 10 -24 16 -47
17 -22 1 -54 5 -71 9 -21 5 -33 4 -33 -2z"/>
<path d="M1685 3080 c-3 -5 -21 -10 -40 -10 -19 0 -37 -4 -40 -10 -3 -5 1 -10
9 -10 9 0 16 -4 16 -9 0 -6 -12 -6 -32 0 -41 11 -41 11 -33 -1 3 -5 -3 -10
-13 -10 -16 0 -32 -17 -32 -35 0 -6 45 8 56 17 13 10 44 0 44 -14 0 -6 10 -7
23 -4 12 4 31 8 43 10 28 4 103 39 104 49 0 4 -13 7 -30 7 -20 0 -30 5 -30 15
0 17 -35 21 -45 5z"/>
<path d="M1922 3063 c-13 -3 -21 -10 -19 -16 6 -19 23 -18 48 2 24 21 19 23
-29 14z"/>
<path d="M2218 2998 c-2 -27 4 -58 16 -83 l18 -39 19 23 c25 31 34 68 23 99
-11 31 -25 32 -40 3 -11 -22 -11 -22 -17 -2 -3 14 0 21 10 21 8 0 11 5 8 10
-15 25 -34 8 -37 -32z"/>
<path d="M555 3020 c-3 -5 -1 -10 4 -10 6 0 11 5 11 10 0 6 -2 10 -4 10 -3 0
-8 -4 -11 -10z"/>
<path d="M1800 3018 c0 -4 11 -8 24 -8 14 0 27 4 30 8 3 5 -8 9 -24 9 -17 0
-30 -4 -30 -9z"/>
<path d="M1755 3000 c3 -5 8 -10 11 -10 2 0 4 5 4 10 0 6 -5 10 -11 10 -5 0
-7 -4 -4 -10z"/>
<path d="M1665 2980 c-7 -12 2 -12 30 0 19 8 19 9 -2 9 -12 1 -25 -3 -28 -9z"/>
<path d="M2123 2967 c-22 -28 -76 -69 -126 -95 -21 -11 -37 -23 -35 -27 3 -7
-56 -32 -99 -42 -13 -3 -23 -10 -23 -15 0 -23 244 29 291 63 24 17 33 18 44 9
16 -14 19 -7 15 40 -2 30 -29 90 -40 90 -5 0 -17 -10 -27 -23z"/>
<path d="M1546 2964 c-9 -23 -8 -24 19 -24 28 0 34 24 9 34 -21 8 -21 8 -28
-10z"/>
<path d="M1446 2941 c-3 -5 -16 -7 -27 -4 -16 4 -20 2 -17 -8 2 -8 18 -15 34
-17 24 -2 30 1 30 18 0 21 -11 27 -20 11z"/>
<path d="M1373 2903 c4 -3 3 -11 -2 -17 -4 -6 -11 -23 -15 -38 -5 -22 -3 -28
10 -28 9 0 27 -9 41 -20 14 -11 37 -20 52 -20 20 0 23 2 11 10 -12 7 -11 10 5
16 11 4 32 16 47 26 18 13 27 15 30 6 3 -7 10 -8 17 -3 11 6 10 10 -3 17 -9 5
-16 20 -16 33 0 18 -5 25 -20 25 -11 0 -20 -4 -20 -9 0 -5 -22 -12 -50 -16
-27 -4 -50 -11 -50 -16 0 -5 -4 -9 -10 -9 -5 0 -10 11 -10 25 0 14 -5 25 -12
25 -6 0 -8 -3 -5 -7z"/>
<path d="M1090 2890 c0 -5 5 -10 11 -10 5 0 7 5 4 10 -3 6 -8 10 -11 10 -2 0
-4 -4 -4 -10z"/>
<path d="M1250 2855 c-11 -13 -8 -15 18 -15 32 0 53 -16 27 -22 -11 -2 -8 -9
12 -28 21 -19 25 -21 20 -7 -4 10 -7 30 -7 43 0 15 -6 24 -15 24 -8 0 -15 5
-15 10 0 15 -26 12 -40 -5z"/>
<path d="M2147 2843 c-12 -12 -7 -22 8 -17 8 4 15 10 15 15 0 11 -14 12 -23 2z"/>
<path d="M1220 2810 c0 -5 5 -10 10 -10 6 0 10 5 10 10 0 6 -4 10 -10 10 -5 0
-10 -4 -10 -10z"/>
<path d="M2331 2736 c2 -2 18 -6 34 -10 22 -5 26 -4 15 4 -14 9 -59 15 -49 6z"/>
<path d="M1943 2717 c-29 -5 -53 -14 -53 -18 0 -5 67 -9 148 -9 178 0 228 -12
292 -70 55 -50 64 -36 19 29 -33 48 -34 48 -114 61 -104 16 -226 19 -292 7z"/>
<path d="M2405 2710 c3 -5 11 -10 16 -10 6 0 7 5 4 10 -3 6 -11 10 -16 10 -6
0 -7 -4 -4 -10z"/>
<path d="M807 2704 c-8 -14 8 -37 22 -33 8 3 8 10 -2 23 -8 11 -17 15 -20 10z"/>
<path d="M840 2630 c6 -11 15 -20 20 -20 16 0 11 27 -6 34 -24 9 -26 8 -14
-14z"/>
<path d="M800 2620 c0 -5 5 -10 10 -10 6 0 10 5 10 10 0 6 -4 10 -10 10 -5 0
-10 -4 -10 -10z"/>
<path d="M2482 2590 c0 -19 2 -27 5 -17 2 9 2 25 0 35 -3 9 -5 1 -5 -18z"/>
<path d="M2187 2563 c-4 -3 -7 -13 -7 -21 0 -12 3 -12 15 -2 8 7 15 16 15 21
0 11 -14 12 -23 2z"/>
<path d="M2291 2498 c0 -7 4 -22 9 -33 8 -18 9 -17 9 7 1 15 -3 30 -9 33 -5 3
-10 0 -9 -7z"/>
<path d="M6238 2498 c-3 -7 -2 -24 2 -38 8 -26 13 -20 23 28 5 23 -17 32 -25
10z"/>
<path d="M2502 1880 c0 -14 2 -19 5 -12 2 6 2 18 0 25 -3 6 -5 1 -5 -13z"/>
<path d="M721 1584 c0 -11 3 -14 6 -6 3 7 2 16 -1 19 -3 4 -6 -2 -5 -13z"/>
<path d="M1250 1040 c0 -5 5 -10 11 -10 5 0 7 5 4 10 -3 6 -8 10 -11 10 -2 0
-4 -4 -4 -10z"/>
<path d="M825 492 c-3 -3 -5 -13 -5 -23 0 -11 -10 -20 -28 -24 -15 -3 -40 -17
-55 -30 -14 -14 -30 -25 -35 -25 -33 0 -72 -89 -72 -167 0 -44 -4 -54 -22 -64
-31 -16 -44 -31 -52 -56 -4 -12 -13 -24 -21 -27 -8 -3 -15 -15 -15 -27 0 -13
-5 -19 -12 -17 -7 3 -21 -4 -30 -14 -17 -17 -9 -18 251 -18 294 0 281 -3 281
58 0 26 24 105 38 126 23 35 31 83 20 116 -32 101 -61 133 -102 110 -14 -7
-27 -11 -29 -9 -64 85 -94 109 -112 91z"/>
<path d="M2180 344 c-13 -32 -13 -71 0 -79 17 -11 41 40 34 73 -8 39 -21 41
-34 6z"/>
<path d="M23 328 c4 -12 2 -15 -9 -11 -12 4 -14 -19 -14 -156 l0 -161 130 0
c72 0 130 1 130 3 0 1 -9 20 -20 42 -13 25 -16 42 -10 50 5 6 9 34 9 61 0 93
-3 105 -24 109 -55 11 -122 19 -142 17 -17 -2 -23 2 -23 16 0 11 -8 26 -17 33
-15 12 -16 12 -10 -3z"/>
<path d="M2715 263 c-11 -3 -24 -9 -29 -14 -15 -14 35 -10 69 6 29 13 29 13 5
13 -14 0 -34 -2 -45 -5z"/>
<path d="M267 244 c8 -4 10 -25 8 -67 l-4 -62 16 52 c17 58 13 83 -14 82 -10
0 -13 -3 -6 -5z"/>
<path d="M282 20 c0 -14 2 -19 5 -12 2 6 2 18 0 25 -3 6 -5 1 -5 -13z"/>
</g>
</svg>
